<svg width="310" height="310" viewBox="0 0 310 310" fill="none" xmlns="http://www.w3.org/2000/svg">
<rect x="1.5" y="1.5" width="307" height="307" rx="57.6305" fill="#111111" stroke="white" stroke-width="3"/>
<mask id="mask0_1490_649" style="mask-type:alpha" maskUnits="userSpaceOnUse" x="3" y="3" width="304" height="304">
<rect x="3" y="3" width="304" height="304" rx="56.1305" fill="white"/>
</mask>
<g mask="url(#mask0_1490_649)">
<path d="M-16 322.5L86.8444 219.656L138.52 271.331L250.483 159.368L275.815 184.699L367.513 93V322.5H275.815H250.483H138.52H86.8444H-16Z" fill="#DF00A1"/>
<path d="M-16 322.5L86.8444 219.656M-16 322.5H86.8444M-16 322.5H138.52M-16 322.5H250.483M-16 322.5H275.815M86.8444 219.656L138.52 271.331M86.8444 219.656V322.5M138.52 271.331L250.483 159.368M138.52 271.331V322.5M250.483 159.368L275.815 184.699M250.483 159.368V322.5M275.815 184.699L367.513 93V322.5H275.815M275.815 184.699V322.5M86.8444 322.5H138.52M86.8444 322.5H250.483M86.8444 322.5H275.815M138.52 322.5H250.483M138.52 322.5H275.815M250.483 322.5H275.815" stroke="#111111" stroke-width="3.03974"/>
<path d="M138.52 271.331L86.8444 219.656V322.5H138.52V271.331Z" fill="url(#paint0_linear_1490_649)"/>
<path d="M275.815 184.699L250.483 159.368V322.5H275.815V184.699Z" fill="url(#paint1_linear_1490_649)"/>
<path d="M-16 322.5L86.8444 219.656M86.8444 219.656L138.52 271.331M86.8444 219.656V322.5M138.52 271.331L250.483 159.368M138.52 271.331V322.5M250.483 159.368L275.815 184.699M250.483 159.368V322.5M275.815 184.699L367.513 93M275.815 184.699V322.5" stroke="#111111" stroke-width="3.03974"/>
<path d="M196.659 149.968C204.195 125.746 203.904 105.601 198.208 90.4704C192.501 75.3107 181.392 65.2754 167.56 61.3536C139.922 53.5172 102.213 70.1726 75.3509 116.805C65.0822 134.626 60.1642 149.007 59.5632 160.025C58.9584 171.11 62.7393 178.944 69.9609 183.183C77.055 187.346 87.1163 187.82 98.6669 185.117C110.26 182.405 123.576 176.447 137.393 167.422C151.099 158.469 160.881 153.028 167.019 150.714C168.545 150.139 169.804 149.773 170.816 149.59C171.846 149.402 172.514 149.424 172.91 149.524C173.248 149.609 173.31 149.723 173.343 149.793C173.411 149.937 173.497 150.306 173.358 151.06C173.076 152.581 172.027 154.909 170.044 158.091C168.088 161.232 165.309 165.069 161.721 169.575C154.545 178.584 144.199 190.179 130.884 204.079C124.106 211.152 120.616 217.604 120.009 223.41C119.393 229.308 121.777 234.272 126.125 238.209C130.428 242.107 136.678 245.034 143.993 247.058C151.329 249.087 159.841 250.238 168.774 250.51C186.623 251.053 206.327 248.091 221.892 241.437C237.4 234.808 249.226 224.303 250.347 209.556C250.886 202.472 249.993 197.43 247.797 194.024C245.546 190.531 242.099 189.018 238.208 188.624C234.376 188.237 229.98 188.915 225.546 189.89C223.315 190.381 221.036 190.957 218.781 191.528L218.529 191.592C216.352 192.145 214.199 192.69 212.096 193.163C207.701 194.152 203.672 194.783 200.305 194.51C196.988 194.242 194.482 193.115 192.837 190.717C191.138 188.239 190.167 184.135 190.626 177.483C191.082 170.86 192.941 161.918 196.659 149.968Z" fill="#111111" stroke="white" stroke-width="3"/>
</g>
<defs>
<linearGradient id="paint0_linear_1490_649" x1="153.212" y1="233.841" x2="153.212" y2="323.007" gradientUnits="userSpaceOnUse">
<stop stop-color="#3EFFB9"/>
<stop offset="1" stop-color="#C4C4C4" stop-opacity="0"/>
</linearGradient>
<linearGradient id="paint1_linear_1490_649" x1="153.212" y1="233.841" x2="153.212" y2="323.007" gradientUnits="userSpaceOnUse">
<stop stop-color="#3EFFB9"/>
<stop offset="1" stop-color="#C4C4C4" stop-opacity="0"/>
</linearGradient>
</defs>
</svg>
