<svg width="885" height="1139" viewBox="0 0 885 1139" fill="none" xmlns="http://www.w3.org/2000/svg">
<g filter="url(#filter0_f_1_1476)">
<circle cx="523.5" cy="523.5" r="159.5" fill="#DF00A1"/>
</g>
<path d="M881.378 562.668C924.5 424.112 922.578 309.7 890.444 224.377C858.299 139.024 795.945 82.8705 718.473 60.9128C563.552 17.0048 348.975 109.919 194.942 377.209C135.983 479.492 108.232 561.244 104.854 623.141C101.472 685.107 122.531 727.33 161.287 750.066C199.914 772.727 255.764 775.807 321.557 760.422C387.392 745.026 463.405 711.093 542.572 659.403C621.627 607.786 678.593 576.036 714.78 562.402C723.817 558.997 731.518 556.737 737.915 555.576C744.331 554.41 749.33 554.369 753.018 555.301C756.649 556.218 758.963 558.057 760.226 560.725C761.524 563.467 761.818 567.305 760.878 572.382C758.998 582.546 752.322 596.922 740.813 615.387C729.331 633.81 713.127 656.163 692.343 682.248C650.776 734.415 590.956 801.42 514.112 881.613C475.555 921.832 456.62 957.606 453.355 988.829C450.079 1020.15 462.591 1046.62 486.306 1068.09C509.976 1089.52 544.831 1105.99 586.442 1117.5C628.074 1129.01 676.574 1135.59 727.638 1137.14C829.749 1140.24 942.29 1123.28 1030.89 1085.42C1119.43 1047.59 1184.48 988.678 1190.64 907.695C1193.7 867.492 1188.48 840.297 1177.06 822.586C1165.58 804.788 1148.01 796.819 1127.05 794.7C1106.15 792.588 1081.74 796.272 1056.3 801.867C1043.56 804.668 1030.53 807.957 1017.52 811.257L1016.02 811.636C1003.5 814.811 991.005 817.979 978.781 820.726C953.334 826.445 929.208 830.305 908.65 828.641C888.141 826.98 871.347 819.842 860.272 803.694C849.142 787.467 843.595 761.876 846.284 722.884C848.971 683.92 859.867 631.783 881.378 562.668Z" stroke="white" stroke-width="3"/>
<defs>
<filter id="filter0_f_1_1476" x="0" y="0" width="1047" height="1047" filterUnits="userSpaceOnUse" color-interpolation-filters="sRGB">
<feFlood flood-opacity="0" result="BackgroundImageFix"/>
<feBlend mode="normal" in="SourceGraphic" in2="BackgroundImageFix" result="shape"/>
<feGaussianBlur stdDeviation="182" result="effect1_foregroundBlur_1_1476"/>
</filter>
</defs>
</svg>
