<svg width="43" height="42" viewBox="0 0 43 42" fill="none" xmlns="http://www.w3.org/2000/svg">
<path d="M37.2216 10.8554C40.1003 10.8554 42.434 8.53144 42.434 5.66465C42.434 2.79787 40.1003 0.473877 37.2216 0.473877C34.3429 0.473877 32.0093 2.79787 32.0093 5.66465C32.0093 8.53144 34.3429 10.8554 37.2216 10.8554Z" fill="#777777"/>
<path d="M18.9784 5.66465C17.9672 5.66465 16.9768 5.75288 16.0073 5.9086C15.0065 2.7578 12.0459 0.473877 8.55365 0.473877C4.23782 0.473877 0.735107 3.96208 0.735107 8.26004C0.735107 10.6426 1.81407 12.776 3.50809 14.2035C1.75152 16.9961 0.735107 20.2923 0.735107 23.8324C0.735107 33.8661 8.90288 42.0001 18.9784 42.0001C29.0539 42.0001 37.2216 33.8661 37.2216 23.8324C37.2216 13.7986 29.0539 5.66465 18.9784 5.66465ZM26.0933 29.0231C25.1915 27.4711 23.5131 26.4278 21.5846 26.4278C19.656 26.4278 17.9776 27.4711 17.0759 29.0231C16.6328 28.2601 16.3722 27.3725 16.3722 26.4278C16.3722 23.5625 18.7073 21.237 21.5846 21.237C24.4618 21.237 26.7969 23.5625 26.7969 26.4278C26.7969 27.3725 26.5363 28.2601 26.0933 29.0231Z" fill="#777777"/>
</svg>
