<svg width="40" height="40" viewBox="0 0 40 40" fill="none" xmlns="http://www.w3.org/2000/svg">
<path d="M28.83 8.00697C29.9614 11.0123 29.9807 14.9026 28.5673 19.4459C27.9026 21.5824 27.589 23.1242 27.5135 24.2189C27.4364 25.3374 27.6202 25.8183 27.7461 26.002C27.8268 26.1197 27.9617 26.2358 28.3748 26.2692C28.8294 26.3061 29.4386 26.2215 30.2225 26.0452C30.5912 25.9623 30.9705 25.8661 31.3701 25.7648L31.4105 25.7545C31.8181 25.6511 32.2465 25.5429 32.6691 25.4499C33.4913 25.269 34.4175 25.1152 35.2769 25.2021C36.1854 25.294 37.1264 25.6714 37.7415 26.6257C38.3095 27.5069 38.462 28.6778 38.3576 30.0498C38.1122 33.2767 35.5363 35.4087 32.6 36.6638C29.6162 37.9393 25.8914 38.4914 22.5406 38.3895C20.8581 38.3383 19.2324 38.1214 17.8097 37.7278C16.4037 37.3387 15.1074 36.7528 14.1695 35.9034C13.1945 35.0204 12.5926 33.8273 12.7429 32.3897C12.8852 31.0292 13.6814 29.6643 14.984 28.305C17.3923 25.7908 19.2481 23.7095 20.5248 22.1066C20.9673 21.551 21.3333 21.0616 21.6253 20.6384C20.6131 21.1416 19.2189 21.9595 17.4066 23.1432C14.8285 24.8271 12.3056 25.9652 10.0625 26.4899C7.85468 27.0064 5.73189 26.9686 4.13235 26.0298C2.42657 25.0287 1.63869 23.2053 1.76292 20.9283C1.88405 18.708 2.85988 15.941 4.75881 12.6454L28.83 8.00697ZM28.83 8.00697C27.6894 4.97725 25.4401 2.92424 22.6166 2.12367M28.83 8.00697L22.6166 2.12367M22.6166 2.12367C16.9905 0.528507 9.75369 3.97459 4.75888 12.6452L22.6166 2.12367ZM23.1916 20.0386C23.1915 20.0386 23.1907 20.0386 23.1889 20.0386L23.1916 20.0386ZM22.441 19.1774C22.442 19.1691 22.4427 19.1682 22.4413 19.1759L22.441 19.1774Z" stroke="#111111" stroke-width="2.5"/>
</svg>
