<svg width="382" height="788" viewBox="0 0 382 788" fill="none" xmlns="http://www.w3.org/2000/svg">
<rect x="1.5" y="1.5" width="379" height="785" rx="57.6305" fill="#EEEEEE" stroke="#111111" stroke-width="3"/>
<path d="M154.5 342L103.5 291V392.5H154.5V342Z" fill="url(#paint0_linear_1_1479)"/>
<path d="M290 256.5L265 231.5V392.5H290V256.5Z" fill="url(#paint1_linear_1_1479)"/>
<path d="M2 392.5L103.5 291M103.5 291L154.5 342M103.5 291V392.5M154.5 342L265 231.5M154.5 342V392.5M265 231.5L290 256.5M265 231.5V392.5M290 256.5L380.5 166M290 256.5V392.5" stroke="#111111" stroke-width="3"/>
<path d="M51.5455 161.284V136.088H54.946V161.284H51.5455ZM40.6477 150.386V146.986H65.8438V150.386H40.6477ZM88.5788 128.273V169H84.8601V132.17H84.6214L75.076 138.514V134.656L84.701 128.273H88.5788ZM104.567 163.432L104.21 165.56C103.984 166.991 103.666 168.569 103.255 170.293C102.844 172.016 102.42 173.653 101.982 175.205C101.545 176.756 101.167 178.002 100.849 178.943H98.1243C98.2966 178.042 98.5154 176.895 98.7805 175.503C99.0589 174.111 99.344 172.566 99.6357 170.869C99.9273 169.186 100.192 167.449 100.431 165.659L100.71 163.432H104.567ZM124.752 169.557C121.888 169.557 119.442 168.735 117.414 167.091C115.399 165.434 113.848 163.041 112.761 159.912C111.687 156.783 111.15 153.025 111.15 148.636C111.15 144.261 111.687 140.516 112.761 137.401C113.848 134.272 115.406 131.879 117.434 130.222C119.476 128.551 121.915 127.716 124.752 127.716C127.589 127.716 130.022 128.551 132.05 130.222C134.092 131.879 135.65 134.272 136.724 137.401C137.811 140.516 138.354 144.261 138.354 148.636C138.354 153.025 137.811 156.783 136.724 159.912C135.65 163.041 134.099 165.434 132.07 167.091C130.055 168.735 127.616 169.557 124.752 169.557ZM124.752 166.216C127.894 166.216 130.347 164.685 132.11 161.622C133.873 158.546 134.755 154.218 134.755 148.636C134.755 144.924 134.351 141.756 133.542 139.131C132.746 136.492 131.6 134.477 130.102 133.085C128.617 131.693 126.834 130.997 124.752 130.997C121.637 130.997 119.191 132.548 117.414 135.651C115.638 138.74 114.749 143.068 114.749 148.636C114.749 152.348 115.147 155.517 115.942 158.142C116.751 160.767 117.898 162.769 119.383 164.148C120.881 165.527 122.671 166.216 124.752 166.216ZM158.698 127.716C160.395 127.729 162.039 128.074 163.63 128.75C165.234 129.413 166.679 130.487 167.965 131.972C169.251 133.443 170.272 135.405 171.028 137.858C171.783 140.297 172.161 143.3 172.161 146.866C172.161 150.194 171.87 153.243 171.286 156.014C170.703 158.785 169.828 161.185 168.661 163.213C167.508 165.228 166.049 166.793 164.286 167.906C162.536 169.007 160.488 169.557 158.141 169.557C155.954 169.557 154.012 169.099 152.315 168.185C150.631 167.27 149.265 166.004 148.218 164.386C147.171 162.756 146.521 160.873 146.269 158.739H149.928C150.286 160.913 151.161 162.703 152.553 164.108C153.959 165.513 155.821 166.216 158.141 166.216C161.469 166.216 164.054 164.665 165.897 161.562C167.74 158.46 168.661 154.045 168.661 148.318H168.403C167.766 149.511 166.931 150.552 165.897 151.44C164.876 152.329 163.71 153.025 162.397 153.528C161.085 154.019 159.699 154.264 158.241 154.264C155.974 154.264 153.899 153.694 152.016 152.554C150.134 151.401 148.629 149.83 147.502 147.841C146.375 145.839 145.812 143.559 145.812 141C145.812 138.587 146.342 136.373 147.403 134.358C148.477 132.33 149.975 130.712 151.897 129.506C153.833 128.286 156.1 127.689 158.698 127.716ZM158.698 131.057C156.935 131.057 155.351 131.508 153.945 132.409C152.553 133.297 151.446 134.497 150.624 136.009C149.816 137.507 149.411 139.17 149.411 141C149.411 142.843 149.816 144.52 150.624 146.031C151.446 147.529 152.553 148.723 153.945 149.611C155.351 150.486 156.935 150.923 158.698 150.923C160.05 150.923 161.31 150.652 162.477 150.108C163.643 149.551 164.651 148.795 165.499 147.841C166.361 146.886 167.011 145.806 167.448 144.599C167.899 143.38 168.078 142.1 167.985 140.761C167.826 138.905 167.329 137.248 166.494 135.79C165.672 134.318 164.585 133.165 163.232 132.33C161.893 131.481 160.382 131.057 158.698 131.057ZM193.798 169.557C191.292 169.557 189.051 169.106 187.076 168.205C185.101 167.29 183.536 166.024 182.383 164.406C181.229 162.789 180.62 160.926 180.553 158.818H184.312C184.378 160.303 184.835 161.602 185.684 162.716C186.532 163.816 187.659 164.678 189.065 165.301C190.47 165.911 192.034 166.216 193.758 166.216C195.64 166.216 197.298 165.865 198.729 165.162C200.174 164.459 201.301 163.498 202.11 162.278C202.932 161.045 203.343 159.653 203.343 158.102C203.343 156.458 202.925 155.007 202.09 153.747C201.255 152.488 200.055 151.507 198.491 150.804C196.94 150.101 195.084 149.75 192.923 149.75H190.536V146.409H192.923C194.686 146.409 196.244 146.091 197.596 145.455C198.961 144.805 200.035 143.897 200.817 142.73C201.6 141.563 201.991 140.191 201.991 138.614C201.991 137.116 201.653 135.796 200.977 134.656C200.3 133.516 199.346 132.621 198.113 131.972C196.893 131.322 195.468 130.997 193.837 130.997C192.26 130.997 190.815 131.302 189.502 131.912C188.19 132.522 187.129 133.384 186.32 134.497C185.525 135.611 185.101 136.93 185.048 138.455H181.448C181.501 136.333 182.085 134.471 183.198 132.866C184.325 131.249 185.817 129.99 187.673 129.088C189.542 128.173 191.61 127.716 193.877 127.716C196.277 127.716 198.352 128.206 200.102 129.188C201.852 130.169 203.204 131.474 204.158 133.105C205.126 134.723 205.61 136.506 205.61 138.455C205.61 140.775 204.98 142.763 203.721 144.42C202.461 146.064 200.764 147.205 198.63 147.841V148.099C201.228 148.616 203.27 149.77 204.755 151.56C206.253 153.336 207.002 155.517 207.002 158.102C207.002 160.277 206.432 162.232 205.292 163.969C204.152 165.692 202.587 167.058 200.599 168.065C198.623 169.06 196.356 169.557 193.798 169.557ZM236.394 161.443V159.594C236.394 158.069 236.699 156.697 237.309 155.477C237.919 154.244 238.787 153.27 239.914 152.554C241.041 151.838 242.38 151.48 243.931 151.48C245.496 151.48 246.835 151.838 247.948 152.554C249.062 153.27 249.917 154.244 250.513 155.477C251.11 156.697 251.408 158.069 251.408 159.594V161.443C251.408 162.968 251.103 164.34 250.494 165.56C249.897 166.779 249.042 167.754 247.928 168.483C246.815 169.199 245.482 169.557 243.931 169.557C242.353 169.557 241.001 169.199 239.874 168.483C238.761 167.754 237.899 166.779 237.289 165.56C236.692 164.34 236.394 162.968 236.394 161.443ZM239.516 159.594V161.443C239.516 162.941 239.881 164.221 240.61 165.281C241.353 166.329 242.46 166.852 243.931 166.852C245.363 166.852 246.443 166.329 247.173 165.281C247.902 164.221 248.266 162.941 248.266 161.443V159.594C248.266 158.096 247.908 156.823 247.192 155.776C246.477 154.715 245.389 154.185 243.931 154.185C242.486 154.185 241.386 154.715 240.63 155.776C239.888 156.823 239.516 158.096 239.516 159.594ZM215.871 137.679V135.83C215.871 134.305 216.176 132.933 216.786 131.713C217.396 130.493 218.264 129.526 219.391 128.81C220.518 128.08 221.857 127.716 223.408 127.716C224.973 127.716 226.312 128.08 227.425 128.81C228.539 129.526 229.394 130.493 229.991 131.713C230.587 132.933 230.886 134.305 230.886 135.83V137.679C230.886 139.204 230.581 140.582 229.971 141.815C229.374 143.035 228.519 144.003 227.406 144.719C226.292 145.435 224.96 145.793 223.408 145.793C221.831 145.793 220.478 145.435 219.352 144.719C218.238 144.003 217.376 143.035 216.766 141.815C216.17 140.582 215.871 139.204 215.871 137.679ZM218.994 135.83V137.679C218.994 139.177 219.358 140.456 220.087 141.517C220.83 142.564 221.937 143.088 223.408 143.088C224.84 143.088 225.921 142.564 226.65 141.517C227.379 140.456 227.744 139.177 227.744 137.679V135.83C227.744 134.331 227.386 133.059 226.67 132.011C225.954 130.951 224.867 130.42 223.408 130.42C221.963 130.42 220.863 130.951 220.107 132.011C219.365 133.059 218.994 134.331 218.994 135.83ZM217.701 169L245.681 128.273H249.201L221.221 169H217.701Z" fill="#111111"/>
<path d="M36.1591 202.42V200.545H49.25V202.42H43.7614V218H41.6477V202.42H36.1591ZM54.2507 210.125V218H52.2393V200.545H54.2507V206.955H54.4212C54.728 206.278 55.1882 205.741 55.8018 205.344C56.4212 204.94 57.245 204.739 58.2734 204.739C59.1655 204.739 59.9467 204.918 60.6172 205.276C61.2876 205.628 61.8075 206.17 62.1768 206.903C62.5518 207.631 62.7393 208.557 62.7393 209.682V218H60.728V209.818C60.728 208.778 60.4581 207.974 59.9183 207.406C59.3842 206.832 58.6428 206.545 57.6939 206.545C57.0348 206.545 56.4439 206.685 55.9212 206.963C55.4041 207.241 54.995 207.648 54.6939 208.182C54.3984 208.716 54.2507 209.364 54.2507 210.125ZM66.419 218V204.909H68.4304V218H66.419ZM67.4418 202.727C67.0497 202.727 66.7116 202.594 66.4276 202.327C66.1491 202.06 66.0099 201.739 66.0099 201.364C66.0099 200.989 66.1491 200.668 66.4276 200.401C66.7116 200.134 67.0497 200 67.4418 200C67.8338 200 68.169 200.134 68.4474 200.401C68.7315 200.668 68.8736 200.989 68.8736 201.364C68.8736 201.739 68.7315 202.06 68.4474 202.327C68.169 202.594 67.8338 202.727 67.4418 202.727ZM81.3871 207.841L79.5803 208.352C79.4666 208.051 79.299 207.759 79.0774 207.474C78.8615 207.185 78.5661 206.946 78.1911 206.759C77.8161 206.571 77.3359 206.477 76.7507 206.477C75.9496 206.477 75.282 206.662 74.7479 207.031C74.2195 207.395 73.9553 207.858 73.9553 208.42C73.9553 208.92 74.1371 209.315 74.5007 209.605C74.8643 209.895 75.4325 210.136 76.2053 210.33L78.1484 210.807C79.3189 211.091 80.1911 211.526 80.7649 212.111C81.3388 212.69 81.6257 213.437 81.6257 214.352C81.6257 215.102 81.4098 215.773 80.978 216.364C80.5518 216.955 79.9553 217.42 79.1882 217.761C78.4212 218.102 77.5291 218.273 76.5121 218.273C75.1768 218.273 74.0717 217.983 73.1967 217.403C72.3217 216.824 71.7678 215.977 71.5348 214.864L73.4439 214.386C73.6257 215.091 73.9695 215.619 74.4751 215.972C74.9865 216.324 75.6541 216.5 76.478 216.5C77.4155 216.5 78.1598 216.301 78.7109 215.903C79.2678 215.5 79.5462 215.017 79.5462 214.455C79.5462 214 79.3871 213.619 79.0689 213.312C78.7507 213 78.2621 212.767 77.603 212.614L75.4212 212.102C74.2223 211.818 73.3416 211.378 72.7791 210.781C72.2223 210.179 71.9439 209.426 71.9439 208.523C71.9439 207.784 72.1513 207.131 72.5661 206.562C72.9865 205.994 73.5575 205.548 74.2791 205.224C75.0064 204.901 75.8303 204.739 76.7507 204.739C78.0462 204.739 79.0632 205.023 79.8018 205.591C80.5462 206.159 81.0746 206.909 81.3871 207.841ZM91.6761 200.545H94.1989L100.131 215.034H100.335L106.267 200.545H108.79V218H106.812V204.739H106.642L101.188 218H99.2784L93.8239 204.739H93.6534V218H91.6761V200.545ZM118.073 218.273C116.891 218.273 115.854 217.991 114.962 217.429C114.076 216.866 113.383 216.08 112.883 215.068C112.388 214.057 112.141 212.875 112.141 211.523C112.141 210.159 112.388 208.969 112.883 207.952C113.383 206.935 114.076 206.145 114.962 205.582C115.854 205.02 116.891 204.739 118.073 204.739C119.255 204.739 120.289 205.02 121.175 205.582C122.067 206.145 122.761 206.935 123.255 207.952C123.755 208.969 124.005 210.159 124.005 211.523C124.005 212.875 123.755 214.057 123.255 215.068C122.761 216.08 122.067 216.866 121.175 217.429C120.289 217.991 119.255 218.273 118.073 218.273ZM118.073 216.466C118.971 216.466 119.71 216.236 120.289 215.776C120.869 215.315 121.298 214.71 121.576 213.96C121.854 213.21 121.994 212.398 121.994 211.523C121.994 210.648 121.854 209.832 121.576 209.077C121.298 208.321 120.869 207.71 120.289 207.244C119.71 206.778 118.971 206.545 118.073 206.545C117.175 206.545 116.437 206.778 115.857 207.244C115.278 207.71 114.849 208.321 114.57 209.077C114.292 209.832 114.153 210.648 114.153 211.523C114.153 212.398 114.292 213.21 114.57 213.96C114.849 214.71 115.278 215.315 115.857 215.776C116.437 216.236 117.175 216.466 118.073 216.466ZM129.087 210.125V218H127.075V204.909H129.018V206.955H129.189C129.496 206.29 129.962 205.756 130.587 205.352C131.212 204.943 132.018 204.739 133.007 204.739C133.893 204.739 134.669 204.92 135.334 205.284C135.999 205.642 136.516 206.188 136.885 206.92C137.254 207.648 137.439 208.568 137.439 209.682V218H135.428V209.818C135.428 208.79 135.161 207.989 134.626 207.415C134.092 206.835 133.359 206.545 132.428 206.545C131.786 206.545 131.212 206.685 130.706 206.963C130.206 207.241 129.811 207.648 129.521 208.182C129.232 208.716 129.087 209.364 129.087 210.125ZM146.808 204.909V206.614H140.023V204.909H146.808ZM142.001 201.773H144.012V214.25C144.012 214.818 144.094 215.244 144.259 215.528C144.43 215.807 144.646 215.994 144.907 216.091C145.174 216.182 145.455 216.227 145.751 216.227C145.972 216.227 146.154 216.216 146.296 216.193C146.438 216.165 146.552 216.142 146.637 216.125L147.046 217.932C146.91 217.983 146.719 218.034 146.475 218.085C146.231 218.142 145.921 218.17 145.546 218.17C144.978 218.17 144.421 218.048 143.876 217.804C143.336 217.56 142.887 217.188 142.529 216.688C142.177 216.188 142.001 215.557 142.001 214.795V201.773ZM152.126 210.125V218H150.114V200.545H152.126V206.955H152.296C152.603 206.278 153.063 205.741 153.677 205.344C154.296 204.94 155.12 204.739 156.148 204.739C157.04 204.739 157.822 204.918 158.492 205.276C159.163 205.628 159.683 206.17 160.052 206.903C160.427 207.631 160.614 208.557 160.614 209.682V218H158.603V209.818C158.603 208.778 158.333 207.974 157.793 207.406C157.259 206.832 156.518 206.545 155.569 206.545C154.91 206.545 154.319 206.685 153.796 206.963C153.279 207.241 152.87 207.648 152.569 208.182C152.273 208.716 152.126 209.364 152.126 210.125Z" fill="#111111"/>
<rect x="157.449" y="29.376" width="37.7864" height="17.4111" rx="8.70555" stroke="#111111" stroke-width="3"/>
<rect x="207.158" y="29.376" width="17.3932" height="17.4111" rx="8.69661" stroke="#111111" stroke-width="3"/>
<rect x="172.5" y="692.5" width="37" height="37" rx="6.5" stroke="#111111" stroke-width="3"/>
<rect x="268.5" y="692.5" width="37" height="37" rx="6.5" stroke="#111111" stroke-width="3"/>
<rect x="76.5" y="692.5" width="37" height="37" rx="6.5" stroke="#111111" stroke-width="3"/>
<rect x="119" y="763" width="144" height="6" rx="3" fill="#111111"/>
<rect x="35" y="35" width="40" height="6" rx="3" fill="#111111"/>
<rect x="283" y="35" width="16" height="6" rx="3" fill="#111111"/>
<rect x="307" y="35" width="16" height="6" rx="3" fill="#111111"/>
<rect x="331" y="35" width="16" height="6" rx="3" fill="#111111"/>
<rect x="36.5" y="428.5" width="309" height="61" rx="6.5" fill="white" stroke="#111111" stroke-width="3"/>
<path d="M276.689 463.932V452.682H278.598V463.932H276.689ZM272.018 459.261V457.352H283.268V459.261H272.018ZM293.498 449.545V467H291.384V451.761H291.282L287.021 454.591V452.443L291.384 449.545H293.498ZM304.109 467.239C302.938 467.239 301.904 467.031 301.006 466.616C300.114 466.196 299.418 465.619 298.918 464.886C298.418 464.148 298.171 463.307 298.177 462.364C298.171 461.625 298.316 460.943 298.612 460.318C298.907 459.687 299.31 459.162 299.822 458.741C300.339 458.315 300.915 458.045 301.552 457.932V457.83C300.717 457.614 300.052 457.145 299.558 456.423C299.063 455.696 298.819 454.869 298.825 453.943C298.819 453.057 299.043 452.264 299.498 451.565C299.952 450.866 300.577 450.315 301.373 449.912C302.174 449.509 303.086 449.307 304.109 449.307C305.12 449.307 306.023 449.509 306.819 449.912C307.614 450.315 308.239 450.866 308.694 451.565C309.154 452.264 309.387 453.057 309.393 453.943C309.387 454.869 309.134 455.696 308.634 456.423C308.14 457.145 307.484 457.614 306.665 457.83V457.932C307.296 458.045 307.864 458.315 308.37 458.741C308.876 459.162 309.279 459.687 309.58 460.318C309.881 460.943 310.035 461.625 310.04 462.364C310.035 463.307 309.779 464.148 309.273 464.886C308.773 465.619 308.077 466.196 307.185 466.616C306.299 467.031 305.273 467.239 304.109 467.239ZM304.109 465.364C304.898 465.364 305.58 465.236 306.154 464.98C306.728 464.724 307.171 464.364 307.484 463.898C307.796 463.432 307.955 462.886 307.961 462.261C307.955 461.602 307.785 461.02 307.45 460.514C307.114 460.009 306.657 459.611 306.077 459.321C305.504 459.031 304.847 458.886 304.109 458.886C303.364 458.886 302.7 459.031 302.114 459.321C301.535 459.611 301.077 460.009 300.742 460.514C300.413 461.02 300.251 461.602 300.256 462.261C300.251 462.886 300.401 463.432 300.708 463.898C301.021 464.364 301.467 464.724 302.046 464.98C302.626 465.236 303.313 465.364 304.109 465.364ZM304.109 457.08C304.734 457.08 305.288 456.955 305.771 456.705C306.259 456.455 306.643 456.105 306.921 455.656C307.2 455.207 307.342 454.682 307.347 454.08C307.342 453.489 307.202 452.974 306.93 452.537C306.657 452.094 306.279 451.753 305.796 451.514C305.313 451.27 304.751 451.148 304.109 451.148C303.455 451.148 302.884 451.27 302.396 451.514C301.907 451.753 301.529 452.094 301.262 452.537C300.995 452.974 300.864 453.489 300.87 454.08C300.864 454.682 300.998 455.207 301.271 455.656C301.549 456.105 301.933 456.455 302.421 456.705C302.91 456.955 303.472 457.08 304.109 457.08ZM322.205 463.727V462.807C322.205 462.17 322.335 461.588 322.597 461.06C322.864 460.526 323.25 460.099 323.756 459.781C324.267 459.457 324.886 459.295 325.614 459.295C326.352 459.295 326.972 459.457 327.472 459.781C327.972 460.099 328.349 460.526 328.605 461.06C328.861 461.588 328.989 462.17 328.989 462.807V463.727C328.989 464.364 328.858 464.949 328.597 465.483C328.341 466.011 327.96 466.437 327.455 466.761C326.955 467.08 326.341 467.239 325.614 467.239C324.875 467.239 324.253 467.08 323.747 466.761C323.241 466.437 322.858 466.011 322.597 465.483C322.335 464.949 322.205 464.364 322.205 463.727ZM323.943 462.807V463.727C323.943 464.256 324.068 464.73 324.318 465.151C324.568 465.565 325 465.773 325.614 465.773C326.21 465.773 326.631 465.565 326.875 465.151C327.125 464.73 327.25 464.256 327.25 463.727V462.807C327.25 462.278 327.131 461.807 326.892 461.392C326.653 460.972 326.227 460.761 325.614 460.761C325.017 460.761 324.588 460.972 324.327 461.392C324.071 461.807 323.943 462.278 323.943 462.807ZM313.511 453.739V452.818C313.511 452.182 313.642 451.599 313.903 451.071C314.17 450.537 314.557 450.111 315.062 449.793C315.574 449.469 316.193 449.307 316.92 449.307C317.659 449.307 318.278 449.469 318.778 449.793C319.278 450.111 319.656 450.537 319.912 451.071C320.168 451.599 320.295 452.182 320.295 452.818V453.739C320.295 454.375 320.165 454.96 319.903 455.494C319.648 456.023 319.267 456.449 318.761 456.773C318.261 457.091 317.648 457.25 316.92 457.25C316.182 457.25 315.56 457.091 315.054 456.773C314.548 456.449 314.165 456.023 313.903 455.494C313.642 454.96 313.511 454.375 313.511 453.739ZM315.25 452.818V453.739C315.25 454.267 315.375 454.741 315.625 455.162C315.875 455.577 316.307 455.784 316.92 455.784C317.517 455.784 317.938 455.577 318.182 455.162C318.432 454.741 318.557 454.267 318.557 453.739V452.818C318.557 452.29 318.438 451.818 318.199 451.403C317.96 450.983 317.534 450.773 316.92 450.773C316.324 450.773 315.895 450.983 315.634 451.403C315.378 451.818 315.25 452.29 315.25 452.818ZM314.159 467L326.159 449.545H328.102L316.102 467H314.159Z" fill="#111111"/>
<path d="M66.9545 449.545V467H64.9091L55.3977 453.295H55.2273V467H53.1136V449.545H55.1591L64.7045 463.284H64.875V449.545H66.9545ZM71.1839 467V449.545H81.6499V451.42H73.2976V457.318H80.8658V459.193H73.2976V467H71.1839ZM84.3153 451.42V449.545H97.4062V451.42H91.9176V467H89.804V451.42H84.3153Z" fill="#111111"/>
<rect x="36.5" y="508.5" width="309" height="61" rx="6.5" fill="white" stroke="#111111" stroke-width="3"/>
<path d="M261.9 543.932V532.682H263.809V543.932H261.9ZM257.229 539.261V537.352H268.479V539.261H257.229ZM278.709 529.545V547H276.595V531.761H276.493L272.232 534.591V532.443L276.595 529.545H278.709ZM289.183 547.239C288.183 547.239 287.283 547.04 286.482 546.642C285.68 546.244 285.038 545.699 284.555 545.006C284.072 544.312 283.808 543.523 283.763 542.636H285.808C285.888 543.426 286.246 544.08 286.882 544.597C287.524 545.108 288.291 545.364 289.183 545.364C289.899 545.364 290.536 545.196 291.092 544.861C291.655 544.526 292.095 544.065 292.413 543.48C292.737 542.889 292.899 542.222 292.899 541.477C292.899 540.716 292.732 540.037 292.396 539.44C292.067 538.838 291.612 538.364 291.033 538.017C290.453 537.67 289.791 537.494 289.047 537.489C288.513 537.483 287.964 537.565 287.402 537.736C286.839 537.901 286.376 538.114 286.013 538.375L284.036 538.136L285.092 529.545H294.161V531.42H286.865L286.251 536.568H286.354C286.712 536.284 287.161 536.048 287.7 535.861C288.24 535.673 288.803 535.58 289.388 535.58C290.456 535.58 291.408 535.835 292.243 536.347C293.084 536.852 293.743 537.545 294.22 538.426C294.703 539.307 294.945 540.312 294.945 541.443C294.945 542.557 294.695 543.551 294.195 544.426C293.7 545.295 293.018 545.983 292.149 546.489C291.28 546.989 290.291 547.239 289.183 547.239ZM304.126 547.239C303.41 547.227 302.694 547.091 301.978 546.83C301.262 546.568 300.609 546.128 300.018 545.509C299.427 544.884 298.952 544.04 298.594 542.977C298.237 541.909 298.058 540.568 298.058 538.955C298.058 537.409 298.202 536.04 298.492 534.847C298.782 533.648 299.202 532.639 299.754 531.821C300.305 530.997 300.969 530.372 301.748 529.946C302.532 529.52 303.415 529.307 304.398 529.307C305.376 529.307 306.245 529.503 307.006 529.895C307.773 530.281 308.398 530.821 308.881 531.514C309.364 532.207 309.677 533.006 309.819 533.909H307.739C307.546 533.125 307.171 532.474 306.614 531.957C306.058 531.44 305.319 531.182 304.398 531.182C303.046 531.182 301.981 531.77 301.202 532.946C300.43 534.122 300.04 535.773 300.035 537.898H300.171C300.489 537.415 300.867 537.003 301.305 536.662C301.748 536.315 302.237 536.048 302.771 535.861C303.305 535.673 303.87 535.58 304.467 535.58C305.467 535.58 306.381 535.83 307.211 536.33C308.04 536.824 308.705 537.509 309.205 538.384C309.705 539.253 309.955 540.25 309.955 541.375C309.955 542.455 309.714 543.443 309.231 544.341C308.748 545.233 308.069 545.943 307.194 546.472C306.325 546.994 305.302 547.25 304.126 547.239ZM304.126 545.364C304.842 545.364 305.484 545.185 306.052 544.827C306.626 544.469 307.077 543.989 307.407 543.386C307.742 542.784 307.91 542.114 307.91 541.375C307.91 540.653 307.748 539.997 307.424 539.406C307.106 538.81 306.665 538.335 306.103 537.983C305.546 537.631 304.91 537.455 304.194 537.455C303.654 537.455 303.151 537.562 302.685 537.778C302.219 537.989 301.81 538.278 301.458 538.648C301.112 539.017 300.839 539.44 300.64 539.918C300.441 540.389 300.342 540.886 300.342 541.409C300.342 542.102 300.504 542.75 300.827 543.352C301.157 543.955 301.606 544.44 302.174 544.81C302.748 545.179 303.398 545.364 304.126 545.364ZM322.205 543.727V542.807C322.205 542.17 322.335 541.588 322.597 541.06C322.864 540.526 323.25 540.099 323.756 539.781C324.267 539.457 324.886 539.295 325.614 539.295C326.352 539.295 326.972 539.457 327.472 539.781C327.972 540.099 328.349 540.526 328.605 541.06C328.861 541.588 328.989 542.17 328.989 542.807V543.727C328.989 544.364 328.858 544.949 328.597 545.483C328.341 546.011 327.96 546.437 327.455 546.761C326.955 547.08 326.341 547.239 325.614 547.239C324.875 547.239 324.253 547.08 323.747 546.761C323.241 546.437 322.858 546.011 322.597 545.483C322.335 544.949 322.205 544.364 322.205 543.727ZM323.943 542.807V543.727C323.943 544.256 324.068 544.73 324.318 545.151C324.568 545.565 325 545.773 325.614 545.773C326.21 545.773 326.631 545.565 326.875 545.151C327.125 544.73 327.25 544.256 327.25 543.727V542.807C327.25 542.278 327.131 541.807 326.892 541.392C326.653 540.972 326.227 540.761 325.614 540.761C325.017 540.761 324.588 540.972 324.327 541.392C324.071 541.807 323.943 542.278 323.943 542.807ZM313.511 533.739V532.818C313.511 532.182 313.642 531.599 313.903 531.071C314.17 530.537 314.557 530.111 315.062 529.793C315.574 529.469 316.193 529.307 316.92 529.307C317.659 529.307 318.278 529.469 318.778 529.793C319.278 530.111 319.656 530.537 319.912 531.071C320.168 531.599 320.295 532.182 320.295 532.818V533.739C320.295 534.375 320.165 534.96 319.903 535.494C319.648 536.023 319.267 536.449 318.761 536.773C318.261 537.091 317.648 537.25 316.92 537.25C316.182 537.25 315.56 537.091 315.054 536.773C314.548 536.449 314.165 536.023 313.903 535.494C313.642 534.96 313.511 534.375 313.511 533.739ZM315.25 532.818V533.739C315.25 534.267 315.375 534.741 315.625 535.162C315.875 535.577 316.307 535.784 316.92 535.784C317.517 535.784 317.938 535.577 318.182 535.162C318.432 534.741 318.557 534.267 318.557 533.739V532.818C318.557 532.29 318.438 531.818 318.199 531.403C317.96 530.983 317.534 530.773 316.92 530.773C316.324 530.773 315.895 530.983 315.634 531.403C315.378 531.818 315.25 532.29 315.25 532.818ZM314.159 547L326.159 529.545H328.102L316.102 547H314.159Z" fill="#111111"/>
<path d="M53.1136 547V529.545H63.6477V531.42H55.2273V537.318H63.1023V539.193H55.2273V545.125H63.7841V547H53.1136ZM66.5028 531.42V529.545H79.5938V531.42H74.1051V547H71.9915V531.42H66.5028ZM82.8558 547V529.545H84.9695V537.318H94.2763V529.545H96.3899V547H94.2763V539.193H84.9695V547H82.8558Z" fill="#111111"/>
<rect x="36.5" y="588.5" width="309" height="61" rx="6.5" fill="white" stroke="#111111" stroke-width="3"/>
<path d="M237.431 623.932V612.682H239.34V623.932H237.431ZM232.761 619.261V617.352H244.011V619.261H232.761ZM247.283 627V625.466L253.045 619.159C253.721 618.42 254.278 617.778 254.715 617.233C255.153 616.682 255.477 616.165 255.687 615.682C255.903 615.193 256.011 614.682 256.011 614.148C256.011 613.534 255.863 613.003 255.567 612.554C255.278 612.105 254.88 611.759 254.374 611.514C253.869 611.27 253.3 611.148 252.67 611.148C251.999 611.148 251.414 611.287 250.914 611.565C250.42 611.838 250.036 612.222 249.763 612.716C249.496 613.21 249.363 613.79 249.363 614.455H247.352C247.352 613.432 247.587 612.534 248.059 611.761C248.531 610.989 249.173 610.386 249.985 609.955C250.803 609.523 251.721 609.307 252.738 609.307C253.761 609.307 254.667 609.523 255.457 609.955C256.246 610.386 256.866 610.969 257.315 611.702C257.763 612.435 257.988 613.25 257.988 614.148C257.988 614.79 257.871 615.418 257.638 616.031C257.411 616.639 257.013 617.318 256.445 618.068C255.883 618.812 255.102 619.722 254.102 620.795L250.181 624.989V625.125H258.295V627H247.283ZM264.849 624.614L264.712 625.534C264.616 626.182 264.468 626.875 264.269 627.614C264.076 628.352 263.874 629.048 263.664 629.702C263.454 630.355 263.281 630.875 263.144 631.261H261.61C261.684 630.898 261.781 630.418 261.9 629.821C262.019 629.224 262.138 628.557 262.258 627.818C262.383 627.085 262.485 626.335 262.565 625.568L262.667 624.614H264.849ZM273.625 627.239C272.341 627.239 271.247 626.889 270.344 626.19C269.44 625.486 268.75 624.466 268.273 623.131C267.795 621.79 267.557 620.17 267.557 618.273C267.557 616.386 267.795 614.776 268.273 613.44C268.756 612.099 269.449 611.077 270.352 610.372C271.261 609.662 272.352 609.307 273.625 609.307C274.898 609.307 275.986 609.662 276.889 610.372C277.798 611.077 278.491 612.099 278.969 613.44C279.452 614.776 279.693 616.386 279.693 618.273C279.693 620.17 279.455 621.79 278.977 623.131C278.5 624.466 277.81 625.486 276.906 626.19C276.003 626.889 274.909 627.239 273.625 627.239ZM273.625 625.364C274.898 625.364 275.886 624.75 276.591 623.523C277.295 622.295 277.648 620.545 277.648 618.273C277.648 616.761 277.486 615.474 277.162 614.412C276.844 613.349 276.384 612.54 275.781 611.983C275.185 611.426 274.466 611.148 273.625 611.148C272.364 611.148 271.378 611.77 270.668 613.014C269.957 614.253 269.602 616.006 269.602 618.273C269.602 619.784 269.761 621.068 270.08 622.125C270.398 623.182 270.855 623.986 271.452 624.537C272.054 625.088 272.778 625.364 273.625 625.364ZM288.489 609.307C289.205 609.312 289.92 609.449 290.636 609.716C291.352 609.983 292.006 610.426 292.597 611.045C293.188 611.659 293.662 612.497 294.02 613.56C294.378 614.622 294.557 615.955 294.557 617.557C294.557 619.108 294.409 620.486 294.114 621.69C293.824 622.889 293.403 623.901 292.852 624.724C292.307 625.548 291.642 626.173 290.858 626.599C290.08 627.026 289.199 627.239 288.216 627.239C287.239 627.239 286.366 627.045 285.599 626.659C284.838 626.267 284.213 625.724 283.724 625.031C283.241 624.332 282.932 623.523 282.795 622.602H284.875C285.062 623.403 285.435 624.065 285.991 624.588C286.554 625.105 287.295 625.364 288.216 625.364C289.563 625.364 290.625 624.776 291.403 623.599C292.188 622.423 292.58 620.761 292.58 618.614H292.443C292.125 619.091 291.747 619.503 291.31 619.849C290.872 620.196 290.386 620.463 289.852 620.651C289.318 620.838 288.75 620.932 288.148 620.932C287.148 620.932 286.23 620.685 285.395 620.19C284.565 619.69 283.901 619.006 283.401 618.136C282.906 617.261 282.659 616.261 282.659 615.136C282.659 614.068 282.898 613.091 283.375 612.205C283.858 611.312 284.534 610.602 285.403 610.074C286.278 609.545 287.307 609.29 288.489 609.307ZM288.489 611.182C287.773 611.182 287.128 611.361 286.554 611.719C285.986 612.071 285.534 612.548 285.199 613.151C284.869 613.747 284.705 614.409 284.705 615.136C284.705 615.864 284.864 616.526 285.182 617.122C285.506 617.713 285.946 618.185 286.503 618.537C287.065 618.884 287.705 619.057 288.42 619.057C288.96 619.057 289.463 618.952 289.929 618.741C290.395 618.526 290.801 618.233 291.148 617.864C291.5 617.489 291.776 617.065 291.974 616.594C292.173 616.116 292.273 615.619 292.273 615.102C292.273 614.42 292.108 613.781 291.778 613.185C291.455 612.588 291.006 612.105 290.432 611.736C289.864 611.366 289.216 611.182 288.489 611.182ZM297.499 623.42V621.682L305.17 609.545H306.431V612.239H305.579L299.783 621.409V621.545H310.113V623.42H297.499ZM305.715 627V622.892V622.082V609.545H307.727V627H305.715ZM322.205 623.727V622.807C322.205 622.17 322.335 621.588 322.597 621.06C322.864 620.526 323.25 620.099 323.756 619.781C324.267 619.457 324.886 619.295 325.614 619.295C326.352 619.295 326.972 619.457 327.472 619.781C327.972 620.099 328.349 620.526 328.605 621.06C328.861 621.588 328.989 622.17 328.989 622.807V623.727C328.989 624.364 328.858 624.949 328.597 625.483C328.341 626.011 327.96 626.437 327.455 626.761C326.955 627.08 326.341 627.239 325.614 627.239C324.875 627.239 324.253 627.08 323.747 626.761C323.241 626.437 322.858 626.011 322.597 625.483C322.335 624.949 322.205 624.364 322.205 623.727ZM323.943 622.807V623.727C323.943 624.256 324.068 624.73 324.318 625.151C324.568 625.565 325 625.773 325.614 625.773C326.21 625.773 326.631 625.565 326.875 625.151C327.125 624.73 327.25 624.256 327.25 623.727V622.807C327.25 622.278 327.131 621.807 326.892 621.392C326.653 620.972 326.227 620.761 325.614 620.761C325.017 620.761 324.588 620.972 324.327 621.392C324.071 621.807 323.943 622.278 323.943 622.807ZM313.511 613.739V612.818C313.511 612.182 313.642 611.599 313.903 611.071C314.17 610.537 314.557 610.111 315.062 609.793C315.574 609.469 316.193 609.307 316.92 609.307C317.659 609.307 318.278 609.469 318.778 609.793C319.278 610.111 319.656 610.537 319.912 611.071C320.168 611.599 320.295 612.182 320.295 612.818V613.739C320.295 614.375 320.165 614.96 319.903 615.494C319.648 616.023 319.267 616.449 318.761 616.773C318.261 617.091 317.648 617.25 316.92 617.25C316.182 617.25 315.56 617.091 315.054 616.773C314.548 616.449 314.165 616.023 313.903 615.494C313.642 614.96 313.511 614.375 313.511 613.739ZM315.25 612.818V613.739C315.25 614.267 315.375 614.741 315.625 615.162C315.875 615.577 316.307 615.784 316.92 615.784C317.517 615.784 317.938 615.577 318.182 615.162C318.432 614.741 318.557 614.267 318.557 613.739V612.818C318.557 612.29 318.438 611.818 318.199 611.403C317.96 610.983 317.534 610.773 316.92 610.773C316.324 610.773 315.895 610.983 315.634 611.403C315.378 611.818 315.25 612.29 315.25 612.818ZM314.159 627L326.159 609.545H328.102L316.102 627H314.159Z" fill="#111111"/>
<path d="M53.8295 627H51.6136L58.0227 609.545H60.2045L66.6136 627H64.3977L59.1818 612.307H59.0455L53.8295 627ZM54.6477 620.182H63.5795V622.057H54.6477V620.182ZM68.4077 609.545L73.5895 624.239H73.794L78.9759 609.545H81.1918L74.7827 627H72.6009L66.1918 609.545H68.4077ZM83.1264 627H80.9105L87.3196 609.545H89.5014L95.9105 627H93.6946L88.4787 612.307H88.3423L83.1264 627ZM83.9446 620.182H92.8764V622.057H83.9446V620.182ZM99.652 609.545L104.152 616.807H104.288L108.788 609.545H111.277L105.788 618.273L111.277 627H108.788L104.288 619.875H104.152L99.652 627H97.1634L102.788 618.273L97.1634 609.545H99.652Z" fill="#111111"/>
<defs>
<linearGradient id="paint0_linear_1_1479" x1="169" y1="305" x2="169" y2="393" gradientUnits="userSpaceOnUse">
<stop stop-color="#3EFFB9"/>
<stop offset="1" stop-color="#C4C4C4" stop-opacity="0"/>
</linearGradient>
<linearGradient id="paint1_linear_1_1479" x1="169" y1="305" x2="169" y2="393" gradientUnits="userSpaceOnUse">
<stop stop-color="#3EFFB9"/>
<stop offset="1" stop-color="#C4C4C4" stop-opacity="0"/>
</linearGradient>
</defs>
</svg>
