<svg width="229" height="472" viewBox="0 0 229 472" fill="none" xmlns="http://www.w3.org/2000/svg">
<rect x="1.0641" y="1.10194" width="226.911" height="469.986" rx="34.5039" fill="#111111" stroke="white" stroke-width="1.79613"/>
<path d="M92.6665 204.962L62.1323 174.428V235.197H92.6665V204.962Z" fill="url(#paint0_linear_1490_262)"/>
<path d="M173.791 153.773L158.824 138.805V235.197H173.791V153.773Z" fill="url(#paint1_linear_1490_262)"/>
<path d="M1.36353 235.197L62.1324 174.428M62.1324 174.428L92.6666 204.962M62.1324 174.428V235.197M92.6666 204.962L158.824 138.805M92.6666 204.962V235.197M158.824 138.805L173.792 153.772M158.824 138.805V235.197M173.792 153.772L227.975 99.5894M173.792 153.772V235.197" stroke="white" stroke-width="1.79613"/>
<path d="M31.0268 97.4358V82.3508H33.0627V97.4358H31.0268ZM24.5022 90.9113V88.8753H39.5873V90.9113H24.5022ZM53.199 77.6717V102.055H50.9725V80.0053H50.8296L45.1147 83.8033V81.4935L50.8773 77.6717H53.199ZM62.7715 98.7217L62.5572 99.9957C62.4222 100.853 62.2317 101.797 61.9857 102.829C61.7396 103.861 61.4856 104.841 61.2237 105.77C60.9618 106.699 60.7355 107.445 60.545 108.008H58.9139C59.0171 107.469 59.148 106.782 59.3068 105.949C59.4735 105.115 59.6441 104.191 59.8188 103.175C59.9934 102.167 60.1521 101.127 60.295 100.055L60.4617 98.7217H62.7715ZM74.8562 102.389C73.1417 102.389 71.6773 101.897 70.4628 100.912C69.2564 99.9203 68.3277 98.4875 67.6768 96.6143C67.0339 94.7411 66.7124 92.4908 66.7124 89.8635C66.7124 87.2442 67.0339 85.0019 67.6768 83.1366C68.3277 81.2633 69.2603 79.8306 70.4748 78.8385C71.6971 77.8383 73.1576 77.3383 74.8562 77.3383C76.5548 77.3383 78.0113 77.8383 79.2258 78.8385C80.4481 79.8306 81.3808 81.2633 82.0237 83.1366C82.6746 85.0019 83 87.2442 83 89.8635C83 92.4908 82.6746 94.7411 82.0237 96.6143C81.3808 98.4875 80.4521 99.9203 79.2377 100.912C78.0312 101.897 76.5707 102.389 74.8562 102.389ZM74.8562 100.389C76.7374 100.389 78.2058 99.4718 79.2615 97.6382C80.3172 95.7968 80.845 93.2052 80.845 89.8635C80.845 87.6411 80.6029 85.744 80.1187 84.1724C79.6425 82.5929 78.9559 81.3864 78.059 80.5529C77.17 79.7195 76.1024 79.3028 74.8562 79.3028C72.9909 79.3028 71.5265 80.2315 70.4628 82.0888C69.3992 83.9383 68.8674 86.5298 68.8674 89.8635C68.8674 92.086 69.1056 93.9831 69.5818 95.5547C70.066 97.1263 70.7526 98.3248 71.6416 99.1503C72.5385 99.9758 73.61 100.389 74.8562 100.389ZM95.18 77.3383C96.196 77.3462 97.1802 77.5526 98.1327 77.9574C99.0931 78.3543 99.9583 78.9972 100.728 79.8862C101.498 80.7673 102.109 81.942 102.562 83.4104C103.014 84.8709 103.24 86.6687 103.24 88.8039C103.24 90.7962 103.066 92.6218 102.717 94.2807C102.367 95.9396 101.843 97.3763 101.145 98.5907C100.454 99.7972 99.5813 100.734 98.5256 101.401C97.4779 102.059 96.2515 102.389 94.8466 102.389C93.5369 102.389 92.3741 102.115 91.3581 101.567C90.3501 101.02 89.5325 100.262 88.9055 99.2932C88.2784 98.3169 87.8895 97.1898 87.7387 95.9119H89.9294C90.1437 97.2136 90.6676 98.2851 91.501 99.1265C92.3424 99.9679 93.4576 100.389 94.8466 100.389C96.8389 100.389 98.3867 99.4599 99.49 97.6025C100.593 95.7452 101.145 93.102 101.145 89.673H100.99C100.609 90.3874 100.109 91.0105 99.49 91.5423C98.8788 92.0741 98.1803 92.4908 97.3945 92.7924C96.6087 93.0861 95.7793 93.233 94.9061 93.233C93.5488 93.233 92.3066 92.8917 91.1795 92.209C90.0524 91.5185 89.1515 90.5779 88.4768 89.3873C87.8022 88.1887 87.4648 86.8235 87.4648 85.2916C87.4648 83.847 87.7823 82.5214 88.4173 81.3149C89.0602 80.1005 89.9572 79.1321 91.1081 78.4098C92.267 77.6796 93.6243 77.3224 95.18 77.3383ZM95.18 79.3385C94.1243 79.3385 93.1758 79.6084 92.3344 80.1481C91.501 80.6799 90.8382 81.3983 90.3461 82.3031C89.8619 83.2001 89.6198 84.1962 89.6198 85.2916C89.6198 86.3949 89.8619 87.399 90.3461 88.3038C90.8382 89.2008 91.501 89.9151 92.3344 90.4469C93.1758 90.9708 94.1243 91.2327 95.18 91.2327C95.9896 91.2327 96.7437 91.07 97.4422 90.7446C98.1406 90.4112 98.7439 89.9588 99.2519 89.3873C99.7678 88.8158 100.157 88.1689 100.419 87.4466C100.689 86.7163 100.796 85.9504 100.74 85.1487C100.645 84.0375 100.347 83.0453 99.8472 82.1722C99.3551 81.2911 98.7042 80.6006 97.8946 80.1005C97.0929 79.5925 96.188 79.3385 95.18 79.3385ZM116.194 102.389C114.694 102.389 113.353 102.119 112.17 101.579C110.987 101.031 110.051 100.273 109.36 99.3051C108.67 98.3367 108.305 97.2215 108.265 95.9595H110.515C110.555 96.8485 110.829 97.6263 111.337 98.2931C111.845 98.9519 112.519 99.4678 113.361 99.8409C114.202 100.206 115.139 100.389 116.17 100.389C117.298 100.389 118.29 100.178 119.147 99.7575C120.012 99.3369 120.687 98.7614 121.171 98.0311C121.663 97.293 121.909 96.4595 121.909 95.5309C121.909 94.5466 121.659 93.6775 121.159 92.9234C120.659 92.1694 119.941 91.582 119.004 91.1613C118.075 90.7406 116.964 90.5303 115.67 90.5303H114.242V88.5301H115.67C116.726 88.5301 117.659 88.3396 118.468 87.9586C119.286 87.5696 119.929 87.0259 120.397 86.3274C120.865 85.6289 121.1 84.8074 121.1 83.8628C121.1 82.9659 120.897 82.1761 120.492 81.4935C120.088 80.8109 119.516 80.2751 118.778 79.8862C118.048 79.4973 117.194 79.3028 116.218 79.3028C115.274 79.3028 114.408 79.4854 113.623 79.8505C112.837 80.2156 112.202 80.7315 111.718 81.3983C111.241 82.065 110.987 82.8548 110.956 83.7676H108.801C108.832 82.4976 109.182 81.3824 109.848 80.422C110.523 79.4536 111.416 78.6996 112.527 78.1598C113.646 77.6121 114.885 77.3383 116.242 77.3383C117.679 77.3383 118.921 77.632 119.969 78.2193C121.016 78.8067 121.826 79.5885 122.397 80.5648C122.977 81.5332 123.267 82.6008 123.267 83.7676C123.267 85.1566 122.89 86.3473 122.135 87.3394C121.381 88.3237 120.365 89.0063 119.088 89.3873V89.5421C120.643 89.8516 121.866 90.5422 122.755 91.6137C123.652 92.6774 124.1 93.9831 124.1 95.5309C124.1 96.8326 123.759 98.0034 123.076 99.0432C122.393 100.075 121.457 100.893 120.266 101.496C119.084 102.091 117.726 102.389 116.194 102.389ZM141.697 97.5311V96.4238C141.697 95.511 141.88 94.6895 142.245 93.9592C142.61 93.2211 143.13 92.6377 143.805 92.209C144.479 91.7804 145.281 91.5661 146.21 91.5661C147.146 91.5661 147.948 91.7804 148.615 92.209C149.281 92.6377 149.793 93.2211 150.151 93.9592C150.508 94.6895 150.686 95.511 150.686 96.4238V97.5311C150.686 98.4439 150.504 99.2654 150.139 99.9957C149.782 100.726 149.27 101.309 148.603 101.746C147.936 102.174 147.138 102.389 146.21 102.389C145.265 102.389 144.456 102.174 143.781 101.746C143.114 101.309 142.598 100.726 142.233 99.9957C141.876 99.2654 141.697 98.4439 141.697 97.5311ZM143.567 96.4238V97.5311C143.567 98.428 143.785 99.194 144.221 99.829C144.666 100.456 145.329 100.77 146.21 100.77C147.067 100.77 147.714 100.456 148.15 99.829C148.587 99.194 148.805 98.428 148.805 97.5311V96.4238C148.805 95.5269 148.591 94.7649 148.162 94.1378C147.734 93.5028 147.083 93.1853 146.21 93.1853C145.344 93.1853 144.686 93.5028 144.233 94.1378C143.789 94.7649 143.567 95.5269 143.567 96.4238ZM129.41 83.3033V82.196C129.41 81.2832 129.593 80.4617 129.958 79.7314C130.323 79.0012 130.843 78.4217 131.518 77.9931C132.192 77.5566 132.994 77.3383 133.923 77.3383C134.859 77.3383 135.661 77.5566 136.328 77.9931C136.994 78.4217 137.506 79.0012 137.863 79.7314C138.221 80.4617 138.399 81.2832 138.399 82.196V83.3033C138.399 84.2161 138.217 85.0416 137.852 85.7797C137.494 86.51 136.982 87.0894 136.316 87.518C135.649 87.9466 134.851 88.161 133.923 88.161C132.978 88.161 132.168 87.9466 131.494 87.518C130.827 87.0894 130.311 86.51 129.946 85.7797C129.589 85.0416 129.41 84.2161 129.41 83.3033ZM131.279 82.196V83.3033C131.279 84.2002 131.498 84.9661 131.934 85.6011C132.379 86.2282 133.041 86.5417 133.923 86.5417C134.78 86.5417 135.427 86.2282 135.863 85.6011C136.3 84.9661 136.518 84.2002 136.518 83.3033V82.196C136.518 81.2991 136.304 80.5371 135.875 79.91C135.447 79.275 134.796 78.9575 133.923 78.9575C133.057 78.9575 132.399 79.275 131.946 79.91C131.502 80.5371 131.279 81.2991 131.279 82.196ZM130.505 102.055L147.257 77.6717H149.365L132.613 102.055H130.505Z" fill="#3EFFB9"/>
<path d="M21.8148 121.624V120.502H29.6524V121.624H26.3664V130.952H25.1009V121.624H21.8148ZM32.6464 126.237V130.952H31.4422V120.502H32.6464V124.339H32.7485C32.9322 123.934 33.2077 123.613 33.5751 123.374C33.9459 123.133 34.4391 123.012 35.0549 123.012C35.5889 123.012 36.0567 123.119 36.4581 123.334C36.8595 123.545 37.1707 123.869 37.3919 124.308C37.6164 124.744 37.7286 125.298 37.7286 125.972V130.952H36.5244V126.053C36.5244 125.431 36.3628 124.95 36.0397 124.609C35.7199 124.266 35.276 124.094 34.7079 124.094C34.3133 124.094 33.9595 124.177 33.6465 124.344C33.337 124.511 33.092 124.754 32.9118 125.074C32.7349 125.393 32.6464 125.781 32.6464 126.237ZM39.9317 130.952V123.114H41.1359V130.952H39.9317ZM40.544 121.808C40.3093 121.808 40.1069 121.728 39.9368 121.568C39.7701 121.408 39.6868 121.216 39.6868 120.992C39.6868 120.767 39.7701 120.575 39.9368 120.415C40.1069 120.255 40.3093 120.175 40.544 120.175C40.7787 120.175 40.9794 120.255 41.1461 120.415C41.3162 120.575 41.4013 120.767 41.4013 120.992C41.4013 121.216 41.3162 121.408 41.1461 121.568C40.9794 121.728 40.7787 121.808 40.544 121.808ZM48.8932 124.87L47.8114 125.176C47.7434 124.995 47.643 124.82 47.5104 124.65C47.3811 124.477 47.2042 124.334 46.9797 124.222C46.7552 124.109 46.4677 124.053 46.1174 124.053C45.6377 124.053 45.238 124.164 44.9182 124.385C44.6019 124.603 44.4437 124.88 44.4437 125.217C44.4437 125.516 44.5526 125.752 44.7703 125.926C44.988 126.099 45.3282 126.244 45.7908 126.36L46.9542 126.645C47.6549 126.815 48.1771 127.076 48.5207 127.426C48.8643 127.773 49.0361 128.22 49.0361 128.768C49.0361 129.217 48.9068 129.618 48.6483 129.972C48.3931 130.326 48.0359 130.605 47.5767 130.809C47.1175 131.013 46.5834 131.115 45.9745 131.115C45.1751 131.115 44.5134 130.942 43.9896 130.595C43.4657 130.248 43.134 129.741 42.9945 129.074L44.1375 128.788C44.2464 129.21 44.4522 129.527 44.755 129.737C45.0611 129.948 45.4608 130.054 45.9541 130.054C46.5154 130.054 46.961 129.935 47.291 129.697C47.6243 129.455 47.791 129.166 47.791 128.829C47.791 128.557 47.6958 128.329 47.5053 128.145C47.3148 127.958 47.0222 127.819 46.6276 127.727L45.3213 127.421C44.6036 127.251 44.0763 126.987 43.7395 126.63C43.4062 126.269 43.2395 125.819 43.2395 125.278C43.2395 124.836 43.3636 124.444 43.612 124.104C43.8637 123.764 44.2056 123.497 44.6376 123.303C45.073 123.109 45.5663 123.012 46.1174 123.012C46.893 123.012 47.5019 123.182 47.9441 123.522C48.3897 123.863 48.7061 124.312 48.8932 124.87ZM55.0533 120.502H56.5637L60.1151 129.176H60.2376L63.789 120.502H65.2994V130.952H64.1156V123.012H64.0136L60.7479 130.952H59.6049L56.3392 123.012H56.2371V130.952H55.0533V120.502ZM70.8575 131.115C70.1499 131.115 69.5291 130.947 68.995 130.61C68.4643 130.273 68.0493 129.802 67.75 129.197C67.454 128.591 67.306 127.884 67.306 127.074C67.306 126.257 67.454 125.545 67.75 124.936C68.0493 124.327 68.4643 123.854 68.995 123.517C69.5291 123.181 70.1499 123.012 70.8575 123.012C71.565 123.012 72.1841 123.181 72.7148 123.517C73.2489 123.854 73.6639 124.327 73.9599 124.936C74.2592 125.545 74.4089 126.257 74.4089 127.074C74.4089 127.884 74.2592 128.591 73.9599 129.197C73.6639 129.802 73.2489 130.273 72.7148 130.61C72.1841 130.947 71.565 131.115 70.8575 131.115ZM70.8575 130.033C71.3949 130.033 71.8372 129.896 72.1841 129.62C72.5311 129.345 72.788 128.982 72.9546 128.533C73.1213 128.084 73.2047 127.598 73.2047 127.074C73.2047 126.55 73.1213 126.062 72.9546 125.609C72.788 125.157 72.5311 124.791 72.1841 124.512C71.8372 124.233 71.3949 124.094 70.8575 124.094C70.32 124.094 69.8778 124.233 69.5308 124.512C69.1838 124.791 68.927 125.157 68.7603 125.609C68.5936 126.062 68.5102 126.55 68.5102 127.074C68.5102 127.598 68.5936 128.084 68.7603 128.533C68.927 128.982 69.1838 129.345 69.5308 129.62C69.8778 129.896 70.32 130.033 70.8575 130.033ZM77.4513 126.237V130.952H76.2471V123.114H77.4105V124.339H77.5126C77.6963 123.941 77.9752 123.621 78.3494 123.38C78.7236 123.135 79.2066 123.012 79.7985 123.012C80.3292 123.012 80.7936 123.121 81.1916 123.339C81.5896 123.553 81.8991 123.88 82.1202 124.318C82.3414 124.754 82.4519 125.305 82.4519 125.972V130.952H81.2477V126.053C81.2477 125.438 81.0878 124.958 80.768 124.614C80.4483 124.267 80.0095 124.094 79.4516 124.094C79.0672 124.094 78.7236 124.177 78.4208 124.344C78.1215 124.511 77.8851 124.754 77.7116 125.074C77.5381 125.393 77.4513 125.781 77.4513 126.237ZM88.061 123.114V124.135H83.9993V123.114H88.061ZM85.1831 121.236H86.3873V128.707C86.3873 129.047 86.4366 129.302 86.5353 129.472C86.6373 129.639 86.7666 129.751 86.9231 129.809C87.083 129.863 87.2514 129.891 87.4282 129.891C87.5609 129.891 87.6698 129.884 87.7548 129.87C87.8399 129.853 87.9079 129.84 87.9589 129.829L88.2038 130.911C88.1222 130.942 88.0082 130.972 87.862 131.003C87.7157 131.037 87.5303 131.054 87.3058 131.054C86.9656 131.054 86.6322 130.981 86.3057 130.835C85.9825 130.688 85.7138 130.465 85.4995 130.166C85.2885 129.867 85.1831 129.489 85.1831 129.033V121.236ZM91.245 126.237V130.952H90.0408V120.502H91.245V124.339H91.3471C91.5308 123.934 91.8063 123.613 92.1737 123.374C92.5445 123.133 93.0377 123.012 93.6535 123.012C94.1875 123.012 94.6553 123.119 95.0567 123.334C95.4581 123.545 95.7693 123.869 95.9905 124.308C96.215 124.744 96.3272 125.298 96.3272 125.972V130.952H95.123V126.053C95.123 125.431 94.9614 124.95 94.6383 124.609C94.3185 124.266 93.8746 124.094 93.3065 124.094C92.9119 124.094 92.5581 124.177 92.2451 124.344C91.9356 124.511 91.6906 124.754 91.5104 125.074C91.3335 125.393 91.245 125.781 91.245 126.237Z" fill="white"/>
<rect x="94.4322" y="17.7916" width="22.6231" height="10.4242" rx="5.21208" stroke="white" stroke-width="1.79613"/>
<rect x="124.193" y="17.7916" width="10.4135" height="10.4242" rx="5.20673" stroke="white" stroke-width="1.79613"/>
<rect x="103.443" y="414.809" width="22.1522" height="22.1522" rx="3.89161" stroke="white" stroke-width="1.79613"/>
<rect x="160.919" y="414.809" width="22.1522" height="22.1522" rx="3.89161" stroke="white" stroke-width="1.79613"/>
<rect x="45.9672" y="414.809" width="22.1522" height="22.1522" rx="3.89161" stroke="white" stroke-width="1.79613"/>
<rect x="71.7117" y="457.318" width="85.6153" height="2.99354" rx="1.49677" fill="white" stroke="white" stroke-width="0.598709"/>
<rect x="21.4202" y="21.458" width="23.3496" height="2.99354" rx="1.49677" fill="white" stroke="white" stroke-width="0.598709"/>
<rect x="169.9" y="21.458" width="8.98063" height="2.99354" rx="1.49677" fill="white" stroke="white" stroke-width="0.598709"/>
<rect x="184.269" y="21.458" width="8.98063" height="2.99354" rx="1.49677" fill="white" stroke="white" stroke-width="0.598709"/>
<rect x="198.638" y="21.458" width="8.98063" height="2.99354" rx="1.49677" fill="white" stroke="white" stroke-width="0.598709"/>
<rect x="22.0189" y="256.75" width="185.001" height="36.5212" rx="3.89161" fill="#333333" stroke="white" stroke-width="1.79613"/>
<path d="M165.822 278.193V271.458H166.965V278.193H165.822ZM163.026 275.397V274.254H169.761V275.397H163.026ZM175.886 269.58V280.03H174.62V270.907H174.559L172.008 272.601V271.315L174.62 269.58H175.886ZM182.239 280.173C181.538 280.173 180.919 280.049 180.381 279.801C179.847 279.549 179.43 279.204 179.131 278.765C178.832 278.323 178.684 277.819 178.687 277.254C178.684 276.812 178.771 276.404 178.947 276.03C179.124 275.652 179.366 275.338 179.672 275.086C179.982 274.831 180.327 274.669 180.708 274.601V274.54C180.208 274.411 179.81 274.13 179.514 273.698C179.218 273.262 179.072 272.768 179.075 272.213C179.072 271.682 179.206 271.208 179.478 270.789C179.75 270.371 180.124 270.041 180.601 269.8C181.08 269.558 181.626 269.437 182.239 269.437C182.844 269.437 183.385 269.558 183.861 269.8C184.337 270.041 184.712 270.371 184.984 270.789C185.259 271.208 185.399 271.682 185.402 272.213C185.399 272.768 185.247 273.262 184.948 273.698C184.652 274.13 184.259 274.411 183.769 274.54V274.601C184.147 274.669 184.487 274.831 184.79 275.086C185.093 275.338 185.334 275.652 185.514 276.03C185.695 276.404 185.787 276.812 185.79 277.254C185.787 277.819 185.634 278.323 185.331 278.765C185.031 279.204 184.615 279.549 184.081 279.801C183.55 280.049 182.936 280.173 182.239 280.173ZM182.239 279.051C182.711 279.051 183.12 278.974 183.463 278.821C183.807 278.668 184.072 278.452 184.259 278.173C184.446 277.894 184.542 277.567 184.545 277.193C184.542 276.799 184.44 276.45 184.239 276.147C184.038 275.844 183.764 275.606 183.417 275.433C183.074 275.259 182.681 275.173 182.239 275.173C181.793 275.173 181.395 275.259 181.045 275.433C180.698 275.606 180.424 275.844 180.223 276.147C180.026 276.45 179.929 276.799 179.932 277.193C179.929 277.567 180.019 277.894 180.203 278.173C180.39 278.452 180.657 278.668 181.004 278.821C181.351 278.974 181.762 279.051 182.239 279.051ZM182.239 274.091C182.613 274.091 182.944 274.016 183.234 273.866C183.526 273.717 183.756 273.507 183.922 273.239C184.089 272.97 184.174 272.655 184.178 272.295C184.174 271.941 184.091 271.633 183.928 271.371C183.764 271.106 183.538 270.902 183.249 270.759C182.96 270.613 182.623 270.539 182.239 270.539C181.847 270.539 181.506 270.613 181.213 270.759C180.92 270.902 180.694 271.106 180.534 271.371C180.374 271.633 180.296 271.941 180.3 272.295C180.296 272.655 180.376 272.97 180.539 273.239C180.706 273.507 180.936 273.717 181.228 273.866C181.521 274.016 181.858 274.091 182.239 274.091ZM193.073 278.071V277.52C193.073 277.139 193.151 276.79 193.307 276.474C193.467 276.154 193.699 275.899 194.001 275.708C194.308 275.514 194.678 275.417 195.114 275.417C195.556 275.417 195.927 275.514 196.226 275.708C196.526 275.899 196.752 276.154 196.905 276.474C197.058 276.79 197.134 277.139 197.134 277.52V278.071C197.134 278.452 197.056 278.802 196.9 279.122C196.747 279.438 196.519 279.693 196.216 279.887C195.917 280.078 195.549 280.173 195.114 280.173C194.672 280.173 194.299 280.078 193.996 279.887C193.694 279.693 193.464 279.438 193.307 279.122C193.151 278.802 193.073 278.452 193.073 278.071ZM194.114 277.52V278.071C194.114 278.387 194.189 278.671 194.338 278.923C194.488 279.171 194.746 279.295 195.114 279.295C195.471 279.295 195.723 279.171 195.869 278.923C196.019 278.671 196.094 278.387 196.094 278.071V277.52C196.094 277.203 196.022 276.921 195.879 276.673C195.736 276.421 195.481 276.295 195.114 276.295C194.757 276.295 194.5 276.421 194.343 276.673C194.19 276.921 194.114 277.203 194.114 277.52ZM187.868 272.091V271.539C187.868 271.159 187.946 270.81 188.103 270.493C188.263 270.174 188.494 269.919 188.797 269.728C189.103 269.534 189.474 269.437 189.909 269.437C190.351 269.437 190.722 269.534 191.022 269.728C191.321 269.919 191.547 270.174 191.7 270.493C191.853 270.81 191.93 271.159 191.93 271.539V272.091C191.93 272.472 191.852 272.822 191.695 273.142C191.542 273.458 191.314 273.713 191.011 273.907C190.712 274.098 190.345 274.193 189.909 274.193C189.467 274.193 189.094 274.098 188.792 273.907C188.489 273.713 188.259 273.458 188.103 273.142C187.946 272.822 187.868 272.472 187.868 272.091ZM188.909 271.539V272.091C188.909 272.407 188.984 272.691 189.134 272.943C189.283 273.191 189.542 273.315 189.909 273.315C190.266 273.315 190.518 273.191 190.664 272.943C190.814 272.691 190.889 272.407 190.889 272.091V271.539C190.889 271.223 190.817 270.941 190.675 270.692C190.532 270.441 190.277 270.315 189.909 270.315C189.552 270.315 189.295 270.441 189.139 270.692C188.986 270.941 188.909 271.223 188.909 271.539ZM188.256 280.03L195.44 269.58H196.604L189.419 280.03H188.256Z" fill="white"/>
<path d="M40.2526 269.58V280.03H39.0279L33.3334 271.825H33.2313V280.03H31.9659V269.58H33.1905L38.9055 277.806H39.0075V269.58H40.2526ZM42.7847 280.03V269.58H49.0508V270.703H44.0502V274.234H48.5813V275.356H44.0502V280.03H42.7847ZM50.6466 270.703V269.58H58.4843V270.703H55.1982V280.03H53.9327V270.703H50.6466Z" fill="white"/>
<rect x="22.0189" y="304.647" width="185.001" height="36.5212" rx="3.89161" fill="#333333" stroke="white" stroke-width="1.79613"/>
<path d="M156.968 326.09V319.355H158.111V326.09H156.968ZM154.172 323.294V322.151H160.907V323.294H154.172ZM167.032 317.477V327.927H165.766V318.803H165.705L163.154 320.498V319.212L165.766 317.477H167.032ZM173.303 328.07C172.704 328.07 172.165 327.951 171.685 327.713C171.206 327.475 170.821 327.148 170.532 326.733C170.243 326.318 170.085 325.845 170.058 325.314H171.282C171.33 325.787 171.544 326.179 171.925 326.488C172.309 326.794 172.769 326.947 173.303 326.947C173.731 326.947 174.112 326.847 174.446 326.646C174.783 326.446 175.046 326.17 175.237 325.82C175.431 325.466 175.528 325.066 175.528 324.62C175.528 324.165 175.427 323.758 175.226 323.401C175.029 323.04 174.757 322.756 174.41 322.549C174.063 322.341 173.667 322.236 173.221 322.232C172.901 322.229 172.573 322.278 172.236 322.38C171.9 322.479 171.622 322.607 171.405 322.763L170.221 322.62L170.854 317.477H176.283V318.599H171.915L171.547 321.681H171.609C171.823 321.511 172.092 321.37 172.415 321.258C172.738 321.146 173.075 321.089 173.425 321.089C174.065 321.089 174.635 321.243 175.135 321.549C175.638 321.851 176.033 322.266 176.318 322.794C176.608 323.321 176.752 323.923 176.752 324.6C176.752 325.267 176.602 325.862 176.303 326.386C176.007 326.906 175.599 327.318 175.079 327.621C174.558 327.92 173.966 328.07 173.303 328.07ZM182.249 328.07C181.82 328.063 181.392 327.981 180.963 327.825C180.534 327.668 180.143 327.405 179.79 327.034C179.436 326.66 179.152 326.155 178.937 325.519C178.723 324.879 178.616 324.076 178.616 323.11C178.616 322.185 178.703 321.365 178.876 320.651C179.05 319.933 179.301 319.329 179.631 318.839C179.961 318.346 180.359 317.972 180.825 317.717C181.295 317.462 181.824 317.334 182.412 317.334C182.997 317.334 183.518 317.451 183.974 317.686C184.433 317.917 184.807 318.241 185.096 318.656C185.385 319.071 185.572 319.548 185.658 320.089H184.412C184.297 319.62 184.072 319.23 183.739 318.921C183.406 318.611 182.963 318.457 182.412 318.457C181.603 318.457 180.965 318.809 180.499 319.513C180.036 320.217 179.803 321.205 179.8 322.477H179.881C180.072 322.188 180.298 321.942 180.56 321.738C180.825 321.53 181.118 321.37 181.438 321.258C181.757 321.146 182.096 321.089 182.453 321.089C183.052 321.089 183.599 321.239 184.096 321.539C184.593 321.834 184.991 322.244 185.29 322.768C185.589 323.289 185.739 323.886 185.739 324.559C185.739 325.206 185.595 325.798 185.305 326.335C185.016 326.869 184.61 327.294 184.086 327.611C183.565 327.924 182.953 328.077 182.249 328.07ZM182.249 326.947C182.678 326.947 183.062 326.84 183.402 326.626C183.746 326.412 184.016 326.124 184.213 325.763C184.414 325.403 184.515 325.001 184.515 324.559C184.515 324.127 184.418 323.734 184.224 323.381C184.033 323.023 183.77 322.739 183.433 322.528C183.099 322.318 182.718 322.212 182.29 322.212C181.967 322.212 181.666 322.277 181.387 322.406C181.108 322.532 180.863 322.705 180.652 322.926C180.444 323.148 180.281 323.401 180.162 323.687C180.043 323.969 179.983 324.267 179.983 324.58C179.983 324.995 180.08 325.382 180.274 325.743C180.472 326.104 180.74 326.395 181.08 326.616C181.424 326.837 181.814 326.947 182.249 326.947ZM193.073 325.968V325.417C193.073 325.036 193.151 324.687 193.308 324.37C193.468 324.051 193.699 323.796 194.002 323.605C194.308 323.411 194.679 323.314 195.114 323.314C195.556 323.314 195.927 323.411 196.226 323.605C196.526 323.796 196.752 324.051 196.905 324.37C197.058 324.687 197.135 325.036 197.135 325.417V325.968C197.135 326.349 197.056 326.699 196.9 327.019C196.747 327.335 196.519 327.59 196.216 327.784C195.917 327.975 195.549 328.07 195.114 328.07C194.672 328.07 194.299 327.975 193.997 327.784C193.694 327.59 193.464 327.335 193.308 327.019C193.151 326.699 193.073 326.349 193.073 325.968ZM194.114 325.417V325.968C194.114 326.284 194.189 326.568 194.338 326.82C194.488 327.068 194.747 327.192 195.114 327.192C195.471 327.192 195.723 327.068 195.869 326.82C196.019 326.568 196.094 326.284 196.094 325.968V325.417C196.094 325.1 196.022 324.818 195.879 324.569C195.737 324.318 195.481 324.192 195.114 324.192C194.757 324.192 194.5 324.318 194.343 324.569C194.19 324.818 194.114 325.1 194.114 325.417ZM187.868 319.987V319.436C187.868 319.055 187.946 318.707 188.103 318.39C188.263 318.07 188.494 317.815 188.797 317.625C189.103 317.431 189.474 317.334 189.909 317.334C190.352 317.334 190.722 317.431 191.022 317.625C191.321 317.815 191.547 318.07 191.7 318.39C191.853 318.707 191.93 319.055 191.93 319.436V319.987C191.93 320.368 191.852 320.719 191.695 321.038C191.542 321.355 191.314 321.61 191.011 321.804C190.712 321.994 190.345 322.09 189.909 322.09C189.467 322.09 189.095 321.994 188.792 321.804C188.489 321.61 188.259 321.355 188.103 321.038C187.946 320.719 187.868 320.368 187.868 319.987ZM188.909 319.436V319.987C188.909 320.304 188.984 320.588 189.134 320.839C189.283 321.088 189.542 321.212 189.909 321.212C190.266 321.212 190.518 321.088 190.664 320.839C190.814 320.588 190.889 320.304 190.889 319.987V319.436C190.889 319.12 190.818 318.838 190.675 318.589C190.532 318.337 190.277 318.212 189.909 318.212C189.552 318.212 189.295 318.337 189.139 318.589C188.986 318.838 188.909 319.12 188.909 319.436ZM188.256 327.927L195.441 317.477H196.604L189.419 327.927H188.256Z" fill="white"/>
<path d="M31.9659 327.927V317.477H38.2727V318.599H33.2313V322.13H37.9462V323.253H33.2313V326.804H38.3544V327.927H31.9659ZM39.9821 318.599V317.477H47.8198V318.599H44.5337V327.927H43.2682V318.599H39.9821ZM49.7728 327.927V317.477H51.0382V322.13H56.6103V317.477H57.8758V327.927H56.6103V323.253H51.0382V327.927H49.7728Z" fill="white"/>
<rect x="22.0189" y="352.544" width="185.001" height="36.5212" rx="3.89161" fill="#333333" stroke="white" stroke-width="1.79613"/>
<path d="M142.318 373.987V367.251H143.461V373.987H142.318ZM139.522 371.191V370.048H146.257V371.191H139.522ZM148.217 375.824V374.905L151.666 371.129C152.071 370.687 152.404 370.303 152.666 369.976C152.928 369.646 153.122 369.337 153.248 369.047C153.377 368.755 153.442 368.449 153.442 368.129C153.442 367.762 153.353 367.444 153.177 367.175C153.003 366.906 152.765 366.699 152.462 366.552C152.159 366.406 151.819 366.333 151.442 366.333C151.04 366.333 150.69 366.416 150.391 366.583C150.095 366.746 149.865 366.976 149.702 367.272C149.542 367.568 149.462 367.915 149.462 368.313H148.258C148.258 367.7 148.399 367.163 148.681 366.7C148.964 366.238 149.348 365.877 149.834 365.618C150.324 365.36 150.874 365.231 151.483 365.231C152.095 365.231 152.637 365.36 153.11 365.618C153.583 365.877 153.954 366.226 154.223 366.665C154.491 367.103 154.626 367.591 154.626 368.129C154.626 368.513 154.556 368.889 154.417 369.257C154.28 369.621 154.042 370.027 153.702 370.476C153.365 370.922 152.898 371.466 152.299 372.109L149.952 374.62V374.701H154.809V375.824H148.217ZM158.733 374.395L158.652 374.946C158.594 375.334 158.505 375.749 158.386 376.191C158.271 376.633 158.15 377.05 158.024 377.441C157.898 377.832 157.794 378.144 157.713 378.375H156.794C156.839 378.157 156.896 377.87 156.968 377.513C157.039 377.156 157.111 376.756 157.182 376.314C157.257 375.875 157.318 375.426 157.366 374.966L157.427 374.395H158.733ZM163.988 375.967C163.219 375.967 162.564 375.757 162.023 375.339C161.482 374.917 161.069 374.307 160.783 373.507C160.498 372.704 160.355 371.735 160.355 370.599C160.355 369.469 160.498 368.505 160.783 367.705C161.072 366.903 161.488 366.29 162.028 365.868C162.573 365.443 163.226 365.231 163.988 365.231C164.75 365.231 165.401 365.443 165.942 365.868C166.486 366.29 166.901 366.903 167.187 367.705C167.476 368.505 167.621 369.469 167.621 370.599C167.621 371.735 167.478 372.704 167.192 373.507C166.906 374.307 166.493 374.917 165.952 375.339C165.411 375.757 164.757 375.967 163.988 375.967ZM163.988 374.844C164.75 374.844 165.342 374.477 165.764 373.742C166.185 373.007 166.396 371.959 166.396 370.599C166.396 369.694 166.299 368.923 166.105 368.287C165.915 367.651 165.639 367.166 165.279 366.833C164.922 366.5 164.491 366.333 163.988 366.333C163.233 366.333 162.642 366.705 162.217 367.45C161.792 368.192 161.579 369.241 161.579 370.599C161.579 371.504 161.675 372.272 161.865 372.905C162.056 373.538 162.329 374.019 162.687 374.349C163.047 374.679 163.481 374.844 163.988 374.844ZM172.887 365.231C173.315 365.234 173.744 365.316 174.173 365.476C174.601 365.635 174.992 365.901 175.346 366.272C175.7 366.639 175.984 367.141 176.198 367.777C176.413 368.413 176.52 369.211 176.52 370.17C176.52 371.099 176.431 371.924 176.255 372.645C176.081 373.363 175.829 373.968 175.499 374.461C175.173 374.955 174.775 375.329 174.305 375.584C173.839 375.839 173.312 375.967 172.723 375.967C172.138 375.967 171.616 375.851 171.157 375.62C170.701 375.385 170.327 375.06 170.034 374.645C169.745 374.227 169.56 373.742 169.478 373.191H170.723C170.836 373.67 171.058 374.067 171.392 374.38C171.728 374.689 172.172 374.844 172.723 374.844C173.53 374.844 174.166 374.492 174.632 373.788C175.101 373.084 175.336 372.089 175.336 370.803H175.254C175.064 371.088 174.838 371.335 174.576 371.543C174.314 371.75 174.023 371.91 173.703 372.022C173.383 372.135 173.043 372.191 172.683 372.191C172.084 372.191 171.535 372.043 171.035 371.747C170.538 371.447 170.14 371.037 169.841 370.517C169.545 369.993 169.397 369.394 169.397 368.721C169.397 368.081 169.539 367.496 169.825 366.966C170.114 366.431 170.519 366.006 171.04 365.69C171.563 365.374 172.179 365.22 172.887 365.231ZM172.887 366.353C172.458 366.353 172.072 366.46 171.728 366.675C171.388 366.886 171.118 367.171 170.917 367.532C170.72 367.889 170.621 368.285 170.621 368.721C170.621 369.156 170.716 369.553 170.907 369.91C171.101 370.264 171.364 370.546 171.698 370.757C172.035 370.964 172.417 371.068 172.846 371.068C173.169 371.068 173.47 371.005 173.749 370.879C174.028 370.75 174.271 370.575 174.479 370.354C174.69 370.129 174.855 369.876 174.974 369.593C175.093 369.308 175.152 369.01 175.152 368.7C175.152 368.292 175.054 367.91 174.856 367.552C174.662 367.195 174.394 366.906 174.05 366.685C173.71 366.464 173.322 366.353 172.887 366.353ZM178.282 373.681V372.64L182.874 365.374H183.629V366.986H183.119L179.649 372.476V372.558H185.833V373.681H178.282ZM183.2 375.824V373.364V372.88V365.374H184.405V375.824H183.2ZM193.073 373.864V373.313C193.073 372.932 193.151 372.584 193.308 372.267C193.467 371.947 193.699 371.692 194.001 371.502C194.308 371.308 194.678 371.211 195.114 371.211C195.556 371.211 195.927 371.308 196.226 371.502C196.526 371.692 196.752 371.947 196.905 372.267C197.058 372.584 197.134 372.932 197.134 373.313V373.864C197.134 374.245 197.056 374.596 196.9 374.915C196.747 375.232 196.519 375.487 196.216 375.681C195.917 375.871 195.549 375.967 195.114 375.967C194.672 375.967 194.299 375.871 193.996 375.681C193.694 375.487 193.464 375.232 193.308 374.915C193.151 374.596 193.073 374.245 193.073 373.864ZM194.114 373.313V373.864C194.114 374.181 194.189 374.465 194.338 374.716C194.488 374.965 194.746 375.089 195.114 375.089C195.471 375.089 195.723 374.965 195.869 374.716C196.019 374.465 196.094 374.181 196.094 373.864V373.313C196.094 372.997 196.022 372.715 195.879 372.466C195.736 372.214 195.481 372.089 195.114 372.089C194.757 372.089 194.5 372.214 194.343 372.466C194.19 372.715 194.114 372.997 194.114 373.313ZM187.868 367.884V367.333C187.868 366.952 187.946 366.603 188.103 366.287C188.263 365.967 188.494 365.712 188.797 365.522C189.103 365.328 189.474 365.231 189.909 365.231C190.351 365.231 190.722 365.328 191.022 365.522C191.321 365.712 191.547 365.967 191.7 366.287C191.853 366.603 191.93 366.952 191.93 367.333V367.884C191.93 368.265 191.852 368.615 191.695 368.935C191.542 369.252 191.314 369.507 191.011 369.701C190.712 369.891 190.345 369.986 189.909 369.986C189.467 369.986 189.094 369.891 188.792 369.701C188.489 369.507 188.259 369.252 188.103 368.935C187.946 368.615 187.868 368.265 187.868 367.884ZM188.909 367.333V367.884C188.909 368.2 188.984 368.484 189.134 368.736C189.283 368.985 189.542 369.109 189.909 369.109C190.266 369.109 190.518 368.985 190.664 368.736C190.814 368.484 190.889 368.2 190.889 367.884V367.333C190.889 367.017 190.817 366.734 190.675 366.486C190.532 366.234 190.277 366.108 189.909 366.108C189.552 366.108 189.295 366.234 189.139 366.486C188.986 366.734 188.909 367.017 188.909 367.333ZM188.256 375.824L195.44 365.374H196.604L189.419 375.824H188.256Z" fill="white"/>
<path d="M32.3945 375.824H31.0678L34.905 365.374H36.2113L40.0485 375.824H38.7218L35.599 367.027H35.5173L32.3945 375.824ZM32.8844 371.742H38.2319V372.864H32.8844V371.742ZM41.1226 365.374L44.225 374.17H44.3474L47.4498 365.374H48.7765L44.9393 375.824H43.6331L39.7959 365.374H41.1226ZM49.9348 375.824H48.6081L52.4453 365.374H53.7516L57.5887 375.824H56.2621L53.1393 367.027H53.0576L49.9348 375.824ZM50.4247 371.742H55.7722V372.864H50.4247V371.742ZM59.8288 365.374L62.523 369.721H62.6046L65.2988 365.374H66.7888L63.5027 370.599L66.7888 375.824H65.2988L62.6046 371.558H62.523L59.8288 375.824H58.3388L61.7066 370.599L58.3388 365.374H59.8288Z" fill="white"/>
<defs>
<linearGradient id="paint0_linear_1490_262" x1="101.348" y1="100.188" x2="101.348" y2="235.496" gradientUnits="userSpaceOnUse">
<stop stop-color="#3EFFB9"/>
<stop offset="1" stop-color="#111111"/>
</linearGradient>
<linearGradient id="paint1_linear_1490_262" x1="101.348" y1="100.188" x2="101.348" y2="235.496" gradientUnits="userSpaceOnUse">
<stop stop-color="#3EFFB9"/>
<stop offset="1" stop-color="#111111"/>
</linearGradient>
</defs>
</svg>
