<svg width="428" height="682" viewBox="0 0 428 682" fill="none" xmlns="http://www.w3.org/2000/svg">
<g filter="url(#filter0_f_1_1257)">
<circle cx="217.961" cy="313.45" r="95.494" fill="#DF00A1"/>
</g>
<path d="M432.225 336.9C458.043 253.946 456.892 185.446 437.653 134.362C418.408 83.2608 381.076 49.6411 334.692 36.4949C241.94 10.2067 113.471 65.835 21.25 225.864C-14.049 287.102 -30.6638 336.047 -32.6864 373.106C-34.7112 410.205 -22.1025 435.484 1.10067 449.097C24.2274 462.664 57.6651 464.508 97.0559 455.297C136.472 446.079 181.981 425.763 229.379 394.816C276.71 363.913 310.817 344.904 332.481 336.741C337.892 334.702 342.503 333.349 346.333 332.654C350.174 331.956 353.167 331.932 355.375 332.489C357.549 333.038 358.935 334.139 359.691 335.737C360.468 337.378 360.644 339.676 360.081 342.716C358.955 348.801 354.958 357.408 348.068 368.463C341.193 379.493 331.492 392.876 319.048 408.494C294.162 439.727 258.347 479.843 212.34 527.855C189.256 551.935 177.919 573.353 175.964 592.046C174.003 610.795 181.494 626.648 195.692 639.5C209.864 652.329 230.732 662.193 255.645 669.083C280.57 675.977 309.608 679.912 340.18 680.841C401.315 682.7 468.694 672.542 521.738 649.876C574.747 627.225 613.694 591.956 617.383 543.47C619.214 519.401 616.088 503.119 609.251 492.515C602.38 481.859 591.862 477.088 579.313 475.82C566.801 474.555 552.186 476.76 536.952 480.111C529.327 481.788 521.524 483.757 513.732 485.732L512.839 485.958C505.342 487.859 497.861 489.756 490.542 491.401C475.306 494.826 460.862 497.137 448.553 496.14C436.274 495.146 426.22 490.872 419.589 481.204C412.925 471.489 409.604 456.168 411.214 432.822C412.823 409.495 419.346 378.28 432.225 336.9Z" stroke="white" stroke-width="1.79613"/>
<defs>
<filter id="filter0_f_1_1257" x="-95.4631" y="0.0259094" width="626.848" height="626.848" filterUnits="userSpaceOnUse" color-interpolation-filters="sRGB">
<feFlood flood-opacity="0" result="BackgroundImageFix"/>
<feBlend mode="normal" in="SourceGraphic" in2="BackgroundImageFix" result="shape"/>
<feGaussianBlur stdDeviation="108.965" result="effect1_foregroundBlur_1_1257"/>
</filter>
</defs>
</svg>
