<svg width="186" height="186" viewBox="0 0 186 186" fill="none" xmlns="http://www.w3.org/2000/svg">
<rect x="0.966256" y="1.28455" width="183.803" height="183.803" rx="34.5039" fill="#111111" stroke="#111111" stroke-width="1.79613"/>
<mask id="mask0_1_1288" style="mask-type:alpha" maskUnits="userSpaceOnUse" x="1" y="2" width="183" height="183">
<rect x="1.86432" y="2.18262" width="182.007" height="182.007" rx="33.6058" fill="white"/>
</mask>
<g mask="url(#mask0_1_1288)">
<path d="M-9.51105 193.47L52.0628 131.896L83.0013 162.835L150.035 95.8012L165.201 110.967L220.102 56.0664V193.47H165.201H150.035H83.0013H52.0628H-9.51105Z" fill="#DF00A1"/>
<path d="M-9.51105 193.47L52.0628 131.896M-9.51105 193.47H52.0628M-9.51105 193.47H83.0013M-9.51105 193.47H150.035M-9.51105 193.47H165.201M52.0628 131.896L83.0013 162.835M52.0628 131.896V193.47M83.0013 162.835L150.035 95.8012M83.0013 162.835V193.47M150.035 95.8012L165.201 110.967M150.035 95.8012V193.47M165.201 110.967L220.102 56.0664V193.47H165.201M165.201 110.967V193.47M52.0628 193.47H83.0013M52.0628 193.47H150.035M52.0628 193.47H165.201M83.0013 193.47H150.035M83.0013 193.47H165.201M150.035 193.47H165.201" stroke="#111111" stroke-width="1.81992"/>
<path d="M83.0013 162.835L52.0627 131.896V193.47H83.0013V162.835Z" fill="url(#paint0_linear_1_1288)"/>
<path d="M165.201 110.967L150.035 95.8013V193.47H165.201V110.967Z" fill="url(#paint1_linear_1_1288)"/>
<path d="M-9.51105 193.47L52.0628 131.896M52.0628 131.896L83.0013 162.835M52.0628 131.896V193.47M83.0013 162.835L150.035 95.8012M83.0013 162.835V193.47M150.035 95.8012L165.201 110.967M150.035 95.8012V193.47M165.201 110.967L220.102 56.0664M165.201 110.967V193.47" stroke="#111111" stroke-width="1.81992"/>
<path d="M117.81 90.1739C122.322 75.6716 122.147 63.6107 118.737 54.5519C115.32 45.4756 108.669 39.4674 100.388 37.1194C83.8409 32.4277 61.2645 42.3994 45.1816 70.3184C39.0336 80.9882 36.0892 89.5984 35.7293 96.1947C35.3672 102.832 37.6309 107.522 41.9546 110.06C46.2019 112.552 52.2257 112.836 59.1411 111.218C66.0819 109.594 74.0543 106.027 82.327 100.623C90.5327 95.2635 96.3892 92.0055 100.064 90.6203C100.977 90.2761 101.732 90.057 102.337 89.947C102.954 89.8349 103.354 89.8479 103.591 89.9078C103.793 89.959 103.83 90.0272 103.85 90.0691C103.891 90.1553 103.943 90.3757 103.859 90.8275C103.691 91.7381 103.062 93.1319 101.875 95.0372C100.704 96.9174 99.0406 99.2148 96.8919 101.912C92.5958 107.306 86.4018 114.248 78.43 122.57C74.3718 126.805 72.2823 130.668 71.9189 134.144C71.5497 137.675 72.9772 140.647 75.5804 143.004C78.157 145.338 81.8986 147.09 86.2784 148.302C90.67 149.517 95.7668 150.206 101.115 150.369C111.801 150.694 123.598 148.921 132.917 144.937C142.202 140.968 149.282 134.678 149.953 125.849C150.276 121.608 149.741 118.59 148.427 116.55C147.079 114.459 145.015 113.553 142.685 113.317C140.391 113.085 137.759 113.491 135.104 114.075C133.769 114.369 132.404 114.714 131.054 115.056L130.904 115.094C129.6 115.425 128.311 115.752 127.052 116.035C124.421 116.627 122.008 117.005 119.993 116.842C118.007 116.681 116.506 116.006 115.522 114.57C114.505 113.087 113.923 110.629 114.198 106.647C114.471 102.682 115.584 97.328 117.81 90.1739Z" fill="white" stroke="#111111" stroke-width="1.79613"/>
</g>
<defs>
<linearGradient id="paint0_linear_1_1288" x1="91.7976" y1="140.389" x2="91.7976" y2="193.773" gradientUnits="userSpaceOnUse">
<stop stop-color="#3EFFB9"/>
<stop offset="1" stop-color="#C4C4C4" stop-opacity="0"/>
</linearGradient>
<linearGradient id="paint1_linear_1_1288" x1="91.7976" y1="140.389" x2="91.7976" y2="193.773" gradientUnits="userSpaceOnUse">
<stop stop-color="#3EFFB9"/>
<stop offset="1" stop-color="#C4C4C4" stop-opacity="0"/>
</linearGradient>
</defs>
</svg>
