<svg width="84" height="65" viewBox="0 0 84 65" fill="none" xmlns="http://www.w3.org/2000/svg">
<path fill-rule="evenodd" clip-rule="evenodd" d="M25.3125 27.375C28.25 21.25 31.6875 15.375 35.625 9.75L23.625 0C18.625 4 14.3437 8.71875 10.7812 14.1563C7.28125 19.5313 4.59375 25.125 2.71875 30.9375C0.906249 36.6875 0 42.125 0 47.25V64.125H21V46.875C21 39.9375 22.4375 33.4375 25.3125 27.375ZM19 62.125V46.875C19 39.6514 20.499 32.8576 23.5054 26.518L23.5092 26.5101C26.2283 20.8404 29.3686 15.3825 32.9293 10.1367L23.6328 2.58324C19.3297 6.22368 15.6047 10.4441 12.4554 15.2504C9.04934 20.4817 6.4418 25.9127 4.62422 31.5451C2.86387 37.1316 2 42.3631 2 47.25V62.125H19ZM73.3125 27.375C76.25 21.25 79.6875 15.375 83.625 9.75L71.625 0C66.625 4 62.3438 8.71875 58.7812 14.1563C55.2812 19.5313 52.5938 25.125 50.7188 30.9375C48.9062 36.6875 48 42.125 48 47.25V64.125H69V46.875C69 39.9375 70.4375 33.4375 73.3125 27.375ZM67 62.125V46.875C67 39.6514 68.499 32.8576 71.5054 26.518L71.5092 26.5101C74.2283 20.8404 77.3686 15.3825 80.9293 10.1367L71.6328 2.58324C67.33 6.22341 63.6052 10.4434 60.4561 15.2494C57.0496 20.481 54.4418 25.9124 52.6241 31.5454C50.8638 37.1318 50 42.3632 50 47.25V62.125H67Z" fill="#111111"/>
</svg>
