<svg width="782" height="1091" viewBox="0 0 782 1091" fill="none" xmlns="http://www.w3.org/2000/svg">
<path d="M778.378 514.668C821.5 376.112 819.578 261.7 787.444 176.377C755.299 91.0242 692.945 34.8705 615.473 12.9128C460.552 -30.9952 245.975 61.9186 91.9415 329.209C32.9828 431.492 5.23176 513.244 1.85352 575.141C-1.52844 637.107 19.5315 679.33 58.2868 702.066C96.9145 724.727 152.764 727.807 218.557 712.422C284.392 697.026 360.405 663.093 439.572 611.403C518.627 559.786 575.593 528.036 611.78 514.402C620.817 510.997 628.518 508.737 634.915 507.576C641.331 506.41 646.33 506.369 650.018 507.301C653.648 508.218 655.963 510.057 657.226 512.725C658.524 515.467 658.818 519.305 657.878 524.382C655.998 534.546 649.322 548.922 637.813 567.387C626.33 585.81 610.127 608.163 589.343 634.248C547.776 686.415 487.956 753.42 411.112 833.613C372.555 873.832 353.62 909.606 350.355 940.829C347.079 972.145 359.591 998.622 383.306 1020.09C406.976 1041.52 441.831 1057.99 483.442 1069.5C525.074 1081.01 573.574 1087.59 624.638 1089.14C726.749 1092.24 839.29 1075.28 927.887 1037.42C1016.43 999.587 1081.48 940.678 1087.64 859.695C1090.7 819.492 1085.48 792.297 1074.06 774.586C1062.58 756.788 1045.01 748.819 1024.05 746.7C1003.15 744.588 978.744 748.272 953.299 753.867C940.563 756.668 927.53 759.957 914.516 763.256L913.026 763.634C900.503 766.81 888.007 769.978 875.781 772.726C850.334 778.445 826.208 782.305 805.65 780.641C785.14 778.98 768.347 771.842 757.272 755.694C746.142 739.467 740.595 713.876 743.284 674.884C745.971 635.92 756.867 583.783 778.378 514.668Z" stroke="white" stroke-width="3"/>
</svg>
